<svg width="13" height="12" viewBox="0 0 13 12" fill="none" xmlns="http://www.w3.org/2000/svg">
<path d="M11.2129 0H1.78714C0.801064 0 0 0.803808 0 1.79327V7.5811C0 8.56851 0.79903 9.37028 1.78104 9.37436V12L5.54238 9.37436H11.2129C12.1989 9.37436 13 8.57055 13 7.5811V1.79327C13 0.803808 12.1969 0 11.2129 0ZM12.2376 7.5811C12.2376 8.14825 11.7781 8.60932 11.2129 8.60932H5.30247L2.54145 10.5372V8.60932H1.78714C1.22193 8.60932 0.762433 8.14825 0.762433 7.5811V1.79327C0.762433 1.22611 1.22193 0.765046 1.78714 0.765046H11.2129C11.7781 0.765046 12.2376 1.22611 12.2376 1.79327V7.5811Z" fill="#163C9B"/>
<path d="M3.47864 2.70105H9.51914V3.46609H3.47864V2.70105Z" fill="#26E2E2"/>
<path d="M3.47864 4.33118H9.51914V5.09622H3.47864V4.33118Z" fill="#26E2E2"/>
<path d="M3.47864 5.96118H9.51914V6.72623H3.47864V5.96118Z" fill="#26E2E2"/>
</svg>
