<svg width="18" height="18" viewBox="0 0 18 18" fill="none" xmlns="http://www.w3.org/2000/svg">
<path d="M13.1553 5.79194C13.0355 5.83185 12.9049 5.79194 12.8323 5.69032L12.0484 4.64516H5.95163L5.16776 5.69032C5.11333 5.7629 5.02623 5.80645 4.9355 5.80645C4.90647 5.80645 4.87381 5.80282 4.84478 5.79194C4.72502 5.75202 4.64518 5.64314 4.64518 5.51613V0.290323C4.64518 0.130645 4.77583 0 4.9355 0H13.0645C13.2242 0 13.3549 0.130645 13.3549 0.290323V5.51613C13.3549 5.63952 13.275 5.75202 13.1553 5.79194ZM12.7742 0.580645H5.22583V4.64516L5.57421 4.18064C5.62865 4.10806 5.71574 4.06452 5.80647 4.06452H12.1936C12.2843 4.06452 12.3714 4.10806 12.4258 4.18064L12.7742 4.64516V0.580645Z" fill="#163C9B"/>
<path d="M11.3226 3.1936C10.8436 3.1936 10.4517 2.80166 10.4517 2.32263C10.4517 1.8436 10.8436 1.45166 11.3226 1.45166C11.8017 1.45166 12.1936 1.8436 12.1936 2.32263C12.1936 2.80166 11.8017 3.1936 11.3226 3.1936ZM11.3226 2.03231C11.163 2.03231 11.0323 2.16295 11.0323 2.32263C11.0323 2.48231 11.163 2.61295 11.3226 2.61295C11.4823 2.61295 11.613 2.48231 11.613 2.32263C11.613 2.16295 11.4823 2.03231 11.3226 2.03231Z" fill="#26E2E2"/>
<path d="M9 3.1936C8.52097 3.1936 8.12904 2.80166 8.12904 2.32263C8.12904 1.8436 8.52097 1.45166 9 1.45166C9.47904 1.45166 9.87097 1.8436 9.87097 2.32263C9.87097 2.80166 9.47904 3.1936 9 3.1936ZM9 2.03231C8.84033 2.03231 8.70968 2.16295 8.70968 2.32263C8.70968 2.48231 8.84033 2.61295 9 2.61295C9.15968 2.61295 9.29033 2.48231 9.29033 2.32263C9.29033 2.16295 9.15968 2.03231 9 2.03231Z" fill="#26E2E2"/>
<path d="M6.67737 3.1936C6.19834 3.1936 5.8064 2.80166 5.8064 2.32263C5.8064 1.8436 6.19834 1.45166 6.67737 1.45166C7.1564 1.45166 7.54834 1.8436 7.54834 2.32263C7.54834 2.80166 7.1564 3.1936 6.67737 3.1936ZM6.67737 2.03231C6.51769 2.03231 6.38705 2.16295 6.38705 2.32263C6.38705 2.48231 6.51769 2.61295 6.67737 2.61295C6.83705 2.61295 6.96769 2.48231 6.96769 2.32263C6.96769 2.16295 6.83705 2.03231 6.67737 2.03231Z" fill="#26E2E2"/>
<path d="M10.7419 10.0851C10.7819 8.36132 12.2008 6.96777 13.9355 6.96777H14.8065C16.5665 6.96777 18 8.40124 18 10.1613V10.6222C18 11.7073 17.6806 12.7561 17.0819 13.6597C16.5411 14.469 16.2581 15.4053 16.2581 16.3779V18H15.6774V16.3779C15.6774 15.2928 15.9968 14.244 16.5956 13.3404C17.1363 12.5311 17.4194 11.5948 17.4194 10.6222V10.1613C17.4194 8.7206 16.2472 7.54842 14.8065 7.54842H13.9355C12.4948 7.54842 11.3226 8.7206 11.3226 10.1613C11.3226 10.2121 11.3117 10.2593 11.2863 10.3029L10.0742 12.4839H11.0323C11.1919 12.4839 11.3226 12.6145 11.3226 12.7742V14.5162H12.7742C12.9339 14.5162 13.0645 14.6468 13.0645 14.8065V18H12.4839V15.0968H11.0323C10.8726 15.0968 10.7419 14.9662 10.7419 14.8065V13.0645H9.58065C9.47903 13.0645 9.38105 13.0101 9.33024 12.923C9.27944 12.8359 9.27581 12.7234 9.32661 12.6363L10.7419 10.0851Z" fill="#163C9B"/>
<path d="M3.19354 6.96777H4.06451C5.79918 6.96777 7.21451 8.35769 7.25806 10.0851L8.67338 12.6327C8.72418 12.7234 8.72056 12.8323 8.66975 12.9194C8.61894 13.0065 8.52096 13.0609 8.41935 13.0609H7.25806V14.8029C7.25806 14.9625 7.12741 15.0932 6.96773 15.0932H5.51612V17.9964H4.93548V14.8029C4.93548 14.6432 5.06612 14.5125 5.2258 14.5125H6.67741V12.7706C6.67741 12.6109 6.80806 12.4803 6.96773 12.4803H7.9258L6.7137 10.2992C6.6883 10.2557 6.67741 10.2085 6.67741 10.1577C6.67741 8.71697 5.50523 7.54479 4.06451 7.54479H3.19354C1.75281 7.54479 0.580637 8.71697 0.580637 10.1577V10.6186C0.580637 11.5875 0.863702 12.5275 1.40443 13.3331C2.00685 14.2367 2.32257 15.2855 2.32257 16.3706V18H1.74193V16.3779C1.74193 15.4089 1.45886 14.469 0.918136 13.6633C0.315717 12.7597 -8.19852e-06 11.7109 -8.19852e-06 10.6258V10.1613C-8.19852e-06 8.40124 1.43346 6.96777 3.19354 6.96777Z" fill="#163C9B"/>
</svg>
