<svg width="14" height="14" viewBox="0 0 14 14" fill="none" xmlns="http://www.w3.org/2000/svg">
<path d="M12.5271 3.68229C12.2354 3.82083 12.1151 4.17083 12.2573 4.4625C12.6401 5.25365 12.8333 6.10677 12.8333 7C12.8333 10.2156 10.2156 12.8333 7 12.8333C3.78437 12.8333 1.16667 10.2156 1.16667 7C1.16667 3.78437 3.78437 1.16667 7 1.16667C8.33437 1.16667 9.5849 1.60052 10.6203 2.42448C10.8719 2.625 11.2401 2.5849 11.4406 2.32969C11.6411 2.07812 11.601 1.7099 11.3458 1.50937C10.1208 0.535937 8.575 0 7 0C3.13906 0 0 3.13906 0 7C0 10.8609 3.13906 14 7 14C10.8609 14 14 10.8609 14 7C14 5.93177 13.7667 4.90729 13.3073 3.95573C13.1651 3.66406 12.8151 3.54375 12.5271 3.68229Z" fill="#163C9B"/>
<path d="M7.00001 2.33337C6.67917 2.33337 6.41667 2.59587 6.41667 2.91671V7.00004C6.41667 7.32087 6.67917 7.58337 7.00001 7.58337H9.91667C10.2375 7.58337 10.5 7.32087 10.5 7.00004C10.5 6.67921 10.2375 6.41671 9.91667 6.41671H7.58334V2.91671C7.58334 2.59587 7.32084 2.33337 7.00001 2.33337Z" fill="#26E2E2"/>
</svg>
