<svg width="12" height="17" viewBox="0 0 12 17" fill="none" xmlns="http://www.w3.org/2000/svg">
<path d="M5.99996 0.00952238C2.91391 0.00786084 0.408763 2.31237 0.399963 5.16103C0.412363 5.71382 0.511513 6.26208 0.694363 6.7886C0.964113 7.34895 1.27621 7.89108 1.62836 8.411C2.44716 9.72805 3.68396 11.7197 3.68396 12.4604C3.68396 12.6643 3.86306 12.8296 4.08396 12.8296H7.91596C8.13686 12.8296 8.31596 12.6643 8.31596 12.4604C8.31596 11.7197 9.55276 9.72805 10.3716 8.411C10.7237 7.89108 11.0358 7.34895 11.3056 6.7886C11.4884 6.26208 11.5876 5.71386 11.6 5.16103C11.5912 2.31237 9.08601 0.00786084 5.99996 0.00952238ZM10.5472 6.55266C10.2871 7.06349 9.99676 7.56075 9.67756 8.04214C8.64596 9.70405 7.76916 11.168 7.56196 12.0911H4.43996C4.23276 11.168 3.35596 9.70405 2.32436 8.04362C2.00441 7.56177 1.71341 7.06405 1.45276 6.55266C1.29841 6.10197 1.21331 5.63355 1.19996 5.16103C1.19996 2.714 3.34901 0.730261 5.99996 0.730261C8.65091 0.730261 10.8 2.714 10.8 5.16103C10.7866 5.63355 10.7015 6.10197 10.5472 6.55266Z" fill="#163C9B"/>
<path d="M7.94676 15.8029C7.83631 15.6261 7.59151 15.5654 7.39996 15.6674L6.85316 15.9584H5.14676L4.59996 15.6674C4.40841 15.5654 4.16361 15.6261 4.05316 15.8029C3.94271 15.9797 4.00841 16.2057 4.19996 16.3077L4.83996 16.6477C4.90081 16.68 4.96976 16.6969 5.03996 16.6968H6.95996C7.03016 16.6969 7.09911 16.68 7.15996 16.6477L7.79996 16.3077C7.99151 16.2057 8.05721 15.9797 7.94676 15.8029Z" fill="#163C9B"/>
<path d="M7.99801 13.6063C7.97591 13.4034 7.77981 13.2554 7.56001 13.2758L4.36002 13.5712C4.14022 13.5915 3.97992 13.7726 4.00197 13.9755C4.02247 14.1642 4.19457 14.3078 4.40002 14.3078C4.41322 14.3078 4.42642 14.3078 4.44002 14.306L7.64001 14.0106C7.85981 13.9902 8.02011 13.8092 7.99801 13.6063Z" fill="#163C9B"/>
<path d="M7.99801 14.7139C7.97591 14.511 7.77981 14.3631 7.56001 14.3835L4.36002 14.6789C4.14022 14.6992 3.97992 14.8802 4.00197 15.0831C4.02247 15.2718 4.19457 15.4155 4.40002 15.4155C4.41322 15.4155 4.42642 15.4155 4.44002 15.4136L7.64001 15.1182C7.85981 15.0978 8.02011 14.9168 7.99801 14.7139Z" fill="#163C9B"/>
<path d="M8.51734 5.83201C8.43779 5.80949 8.35259 5.81041 8.27369 5.83469L6.00009 6.53401L3.72649 5.83469C3.51689 5.77026 3.29039 5.87489 3.22059 6.06836C3.19429 6.14124 3.19329 6.21984 3.21769 6.29327L4.81769 11.0933C4.88264 11.2882 5.10649 11.3977 5.31769 11.3377C5.52889 11.2777 5.64744 11.0711 5.58249 10.8762L4.21089 6.76182L5.87369 7.27321C5.95569 7.29869 6.04449 7.29869 6.12649 7.27321L7.78929 6.76182L6.41769 10.8762C6.35274 11.0711 6.47129 11.2777 6.68249 11.3377C6.89369 11.3977 7.11754 11.2882 7.18249 11.0933L8.78249 6.29327C8.84729 6.09832 8.72859 5.89178 8.51734 5.83201Z" fill="#26E2E2"/>
</svg>
