<svg width="32" height="30" viewBox="0 0 32 30" fill="none" xmlns="http://www.w3.org/2000/svg">
<g filter="">
<path d="M2.66663 13.9998C2.66663 10.4636 4.07138 7.07223 6.57187 4.57175C9.07235 2.07126 12.4637 0.666504 16 0.666504C17.7509 0.666504 19.4847 1.01138 21.1024 1.68144C22.7201 2.35151 24.1899 3.33363 25.4281 4.57175C26.6662 5.80986 27.6483 7.27972 28.3184 8.89739C28.9884 10.5151 29.3333 12.2489 29.3333 13.9998C29.3333 17.5361 27.9285 20.9274 25.4281 23.4279C22.9276 25.9284 19.5362 27.3332 16 27.3332C14.249 27.3332 12.5152 26.9883 10.8975 26.3182C9.27984 25.6482 7.80998 24.666 6.57187 23.4279C4.07138 20.9274 2.66663 17.5361 2.66663 13.9998ZM24 12.6665H13.3333L18 7.99984L16.1066 6.1065L8.21329 13.9998L16.1066 21.8932L18 19.9998L13.3333 15.3332H24V12.6665Z" fill="white"/>
</g>
<defs>
<filter id="filter0_d" x="-1.33337" y="0.666504" width="34.6667" height="34.6667" filterUnits="userSpaceOnUse" color-interpolation-filters="sRGB">
<feFlood flood-opacity="0" result="BackgroundImageFix"/>
<feColorMatrix in="SourceAlpha" type="matrix" values="0 0 0 0 0 0 0 0 0 0 0 0 0 0 0 0 0 0 127 0"/>
<feOffset dy="4"/>
<feGaussianBlur stdDeviation="2"/>
<feColorMatrix type="matrix" values="0 0 0 0 0 0 0 0 0 0 0 0 0 0 0 0 0 0 0.25 0"/>
<feBlend mode="normal" in2="BackgroundImageFix" result="effect1_dropShadow"/>
<feBlend mode="normal" in="SourceGraphic" in2="effect1_dropShadow" result="shape"/>
</filter>
</defs>
</svg>
