<svg width="23" height="24" viewBox="0 0 23 24" fill="none" xmlns="http://www.w3.org/2000/svg">
<g clip-path="url(#clip0)">
<path d="M16.2041 8.27363L14.2714 8.20801L13.8521 19.3268L15.7848 19.3971L16.2041 8.27363Z" fill="#163C9B"/>
<path d="M12.4689 8.24072H10.5361V19.3642H12.4689V8.24072Z" fill="#163C9B"/>
<path d="M9.14795 19.3266L8.72863 8.20312L6.7959 8.27344L7.21522 19.3969L9.14795 19.3266Z" fill="#163C9B"/>
<path d="M0 3.60474V5.48443H2.01467L3.61484 23.1423C3.65822 23.6298 4.07754 24.0001 4.5788 24.0001H18.3971C18.8984 24.0001 19.3177 23.6298 19.3611 23.1423L20.9564 5.48443H23.0048V3.60474H0ZM17.5103 22.1204H5.46082L3.95222 5.48443H19.0141L17.5103 22.1204Z" fill="#163C9B"/>
<path d="M14.657 0H8.34308C7.45624 0 6.73328 0.703125 6.73328 1.56563V4.54219H8.66601V1.87969H14.3341V4.54219H16.2668V1.56563C16.2668 0.703125 15.5486 0 14.657 0Z" fill="#163C9B"/>
</g>
<defs>
<clipPath id="clip0">
<rect width="23" height="24" fill="white"/>
</clipPath>
</defs>
</svg>
