<svg width="108" height="191" viewBox="0 0 108 191" fill="none" xmlns="http://www.w3.org/2000/svg">
<g clip-path="">
<path d="M41.4961 85.9853C41.4961 85.9853 38.1464 83.8829 37.4429 84.5274C36.7393 85.172 35.6533 87.0442 35.8063 88.5635C35.9592 90.0828 37.0758 90.9729 37.0758 90.9729C37.0758 90.9729 41.9397 90.8194 43.1633 88.5635C44.3716 86.2922 41.4961 85.9853 41.4961 85.9853Z" fill="#F2B186"/>
<path d="M61.4259 55.5996C61.4259 55.5996 62.8942 77.2226 60.2023 80.2611C57.5103 83.2997 39.9513 86.0927 39.9513 86.0927L41.4961 89.3001C41.4961 89.3001 61.0435 89.7144 66.5345 86.3383C72.0255 82.9621 71.8573 63.1346 71.8573 63.1346L68.5994 57.2877L61.4259 55.5996Z" fill="#F2B186"/>
<path d="M63.4448 45.0414C63.4448 45.0414 61.2729 46.7448 60.8293 51.6863C60.3858 56.6278 60.8293 62.4748 60.8293 62.4748L67.3298 62.1679L63.4448 45.0414Z" fill="#E0D5D8"/>
<path d="M36.1734 122.126C36.1734 122.126 34.9038 115.865 36.2498 107.148C37.5958 98.4311 39.263 91.7862 39.263 91.7862L37.2899 91.2644C37.2899 91.2644 34.0626 97.449 31.9672 108.222C29.8717 119.011 31.2177 126.024 31.2177 126.024L36.1734 122.126Z" fill="#FFCAA6"/>
<path d="M39.2783 91.7708C39.2783 91.7708 39.7066 90.9421 39.7678 89.8986C39.829 88.855 38.5594 85.6937 38.2994 85.3101C38.0394 84.9264 36.8158 86.2155 36.8311 87.5966C36.8464 88.9778 37.3052 91.2491 37.3052 91.2491C37.3052 91.2491 37.9476 92.1545 39.2783 91.7708Z" fill="#FFCAA6"/>
<path d="M37.6876 101.101C37.6876 101.101 38.5441 97.5104 43.1633 97.6178C47.7825 97.7252 48.9755 101.009 52.0193 102.713C55.063 104.416 59.0092 96.743 64.5002 101.608C69.9759 106.473 62.8483 107.946 61.2882 110.969C59.7281 113.992 58.5809 118.934 50.5662 120.315C42.5515 121.696 36.8616 119.333 34.2003 115.834C31.5389 112.335 34.0932 109.035 34.3073 107.685C34.5368 106.319 33.4967 101.715 37.6876 101.101Z" fill="#51495B"/>
<path d="M5.99576 168.625C5.99576 168.625 5.41454 169.254 5.16982 169.239C4.9098 169.224 2.20253 167.275 0.596529 165.847C-0.994181 164.42 0.978911 165.111 1.95781 165.817C3.85442 166.845 5.99576 168.625 5.99576 168.625Z" fill="#F15F46"/>
<path d="M8.39714 166.277C8.39714 166.277 6.17932 168.763 5.9193 168.656C5.65928 168.548 1.95782 165.832 1.95782 165.832C1.95782 165.832 4.28271 166.952 4.43566 166.799C4.58861 166.645 5.99578 165.157 5.99578 165.157L8.39714 166.277Z" fill="#FFCAA6"/>
<path d="M38.2841 173.812C38.2841 173.812 38.6053 174.61 38.4829 174.825C38.3606 175.055 35.4392 176.667 33.4508 177.495C31.4624 178.324 32.9461 176.82 34.0167 176.252C35.7604 174.978 38.2841 173.812 38.2841 173.812Z" fill="#F15F46"/>
<path d="M37.2134 170.635C37.2134 170.635 38.4829 173.705 38.2688 173.904C38.0547 174.088 34.0167 176.268 34.0167 176.268C34.0167 176.268 36.0357 174.656 35.9592 174.457C35.8827 174.257 35.1639 172.339 35.1639 172.339L37.2134 170.635Z" fill="#FFCAA6"/>
<path d="M30.2541 149.657C30.2541 149.657 29.7035 159.801 29.9482 162.118C30.1929 164.451 35.8063 174.073 35.8063 174.073C35.8063 174.073 36.4334 174.963 38.1923 173.367C38.4677 170.62 35.5616 161.75 35.3933 161.351C35.2251 160.952 38.2994 153.463 38.6665 152.312C39.0336 151.161 40.7314 148.859 40.5784 145.928C40.4254 142.997 32.166 143.519 32.166 143.519L30.2541 149.657Z" fill="#FFCAA6"/>
<path d="M47.5989 110.954C47.0177 115.542 43.7292 119.64 40.349 119.21C36.9687 118.78 34.7968 113.992 35.378 109.404C35.9592 104.815 39.0642 102.145 42.4444 102.575C45.8247 103.004 48.1801 106.365 47.5989 110.954Z" fill="#FFCAA6"/>
<path d="M26.0478 140.434L4.43561 166.784L6.43929 168.287C6.43929 168.287 15.0505 161.796 16.5954 160.261C18.1555 158.727 18.8132 157.714 19.0579 157.253C19.3026 156.793 29.5352 150.394 30.254 149.642C30.9729 148.89 33.099 143.795 33.099 143.795L26.0478 140.434Z" fill="#FFCAA6"/>
<path d="M35.225 120.913C35.225 120.913 38.1617 121.65 40.9149 121.88C43.668 122.11 47.0942 121.589 47.1706 122.141C47.2318 122.694 45.1822 136.352 42.5668 146.787C31.0494 145.805 23.8759 140.158 23.8759 140.158C23.8759 140.158 28.7398 134.096 30.6517 129.753C32.5636 125.41 34.0626 120.499 35.225 120.913Z" fill="#43F9F9"/>
<path d="M44.2645 121.911C44.2645 121.911 48.6696 117.307 52.1875 109.22C55.6901 101.132 57.8315 94.6099 57.8315 94.6099L59.7892 95.2238C59.7892 95.2238 59.2233 102.176 55.2313 112.412C51.2392 122.648 46.36 127.85 46.36 127.85L44.2645 121.911Z" fill="#FFCAA6"/>
<path d="M38.5135 117.537L37.5193 121.405C37.5193 121.405 38.0088 122.341 39.263 122.755C40.5172 123.169 42.0162 121.942 42.0162 121.942L42.0009 118.305L38.5135 117.537Z" fill="#FFCAA6"/>
<path d="M57.8315 94.6099C57.8315 94.6099 57.908 93.6738 58.4127 92.7683C58.9174 91.8476 61.6859 89.8679 62.1141 89.6837C62.5424 89.4996 62.8942 91.2491 62.1447 92.4C61.3953 93.551 59.8046 95.2238 59.8046 95.2238C59.8046 95.2238 58.7492 95.6381 57.8315 94.6099Z" fill="#FFCAA6"/>
<path d="M38.3606 118.151C38.3606 118.151 39.0947 118.673 40.1195 118.934C41.1443 119.195 42.0008 118.995 42.0008 118.995V119.716C42.0008 119.716 41.1443 120.422 39.9054 120.392C38.6665 120.361 37.8405 120.069 37.8405 120.069L38.3606 118.151Z" fill="#F2B186"/>
<path d="M42.7197 121.942C42.7197 121.942 43.5916 121.834 44.5858 120.867C45.5799 119.916 46.4365 118.55 46.4365 118.55L51.0251 121.957L45.9929 129.952L42.7197 121.942Z" fill="#43F9F9"/>
<path d="M45.1822 134.541C45.1822 134.541 42.5208 151.652 38.2076 162.563C31.493 162.778 24.243 159.786 20.7404 154.829C17.2377 149.872 8.39707 149.718 5.90394 148.322C3.41081 146.925 0.79532 142.352 7.43347 137.948C14.0716 133.544 21.704 135.017 25.5278 133.712C29.3516 132.423 30.8964 128.264 30.8964 128.264L45.1822 134.541Z" fill="#43F9F9"/>
<path d="M33.1449 129.247C33.1449 129.247 30.8812 134.081 28.2657 135.999C25.6502 137.917 22.4688 136.613 16.1366 140.265C9.80431 143.918 8.5348 149.166 8.5348 149.166C8.5348 149.166 5.64399 149.028 3.91562 146.879C2.18726 144.731 2.84495 141.815 4.86393 139.513C6.88291 137.227 11.8233 135.216 15.2188 134.694C18.6144 134.173 22.4229 134.449 25.1761 133.666C27.9292 132.884 29.7799 130.735 30.973 128.034C32.579 127.497 33.1449 129.247 33.1449 129.247Z" fill="#0FD1D1"/>
<path d="M36.0204 115.005C36.0204 115.005 35.4851 111.69 35.898 109.926C36.311 108.161 37.3664 106.427 37.3664 106.427C37.3664 106.427 38.0853 108.376 40.5937 109.404C43.0868 110.432 45.8094 109.864 46.513 111.337C47.2165 112.811 46.2376 115.205 46.2376 115.205C46.2376 115.205 50.2603 110.555 47.8742 105.552C45.4882 100.534 39.783 100.672 37.244 102.912C34.6897 105.153 33.1908 112.059 36.0204 115.005Z" fill="#51495B"/>
<path d="M76.1093 170.605C76.0328 168.088 76.0481 165.679 76.1093 163.423L73.142 89.6377L80.1473 88.7936L80.132 89.0392L92.3835 88.4407L92.6129 109.342C92.8576 107.593 88.3149 132.485 86.5101 148.721C86.2654 150.885 86.9995 158.711 86.5713 166.185C86.143 173.659 82.3039 188.038 82.3039 188.038L76.8894 188.376C76.8894 188.406 76.3693 179.69 76.1093 170.605Z" fill="#FF8E00"/>
<path d="M104.283 88.6555C104.283 88.6555 105.706 95.3772 106.516 112.197C107.281 128.249 105.721 144.378 105.935 148.445H95.5649L86.8007 109.25L84.8582 88.5481L104.283 88.6555Z" fill="#FFC001"/>
<path d="M82.2733 187.302C82.2733 187.302 83.3287 190.923 82.2733 190.969C81.2179 191.031 72.9891 190.969 72.9891 190.969C72.9891 190.969 70.9701 190.171 71.7349 189.143C72.4843 188.115 76.8588 188.084 76.7517 187.209C77.2106 186.411 82.2733 187.302 82.2733 187.302Z" fill="#443D4F"/>
<path d="M106.256 186.887C106.256 186.887 107.327 190.923 106.256 190.985C105.201 191.046 96.9721 190.985 96.9721 190.985C96.9721 190.985 94.9531 190.187 95.7179 189.158C96.4674 188.13 100.964 187.762 100.872 186.887C101.331 186.074 106.256 186.887 106.256 186.887Z" fill="#443D4F"/>
<path d="M95.5649 148.429L100.719 186.872H106.731C106.731 186.872 108.734 172.278 107.709 164.129C106.685 155.98 105.95 151.299 105.95 148.429C105.935 145.575 95.5649 148.429 95.5649 148.429Z" fill="#FFC001"/>
<path d="M71.9031 38.9489C71.9031 38.9489 62.8942 42.7548 62.4812 47.4968C62.0683 52.2388 70.496 84.7422 70.8631 89.1773C71.2148 93.6124 70.5877 98.1242 76.2776 98.9683C81.9674 99.797 104.513 94.349 106.991 90.1902C108.688 87.3511 106.149 81.2586 104.191 78.0513C102.234 74.8439 96.3909 38.8261 93.5613 36.1712C90.7316 33.5163 79.3213 36.5395 79.3213 36.5395L71.9031 38.9489Z" fill="#EFE6E8"/>
<path d="M61.8388 18.3388C63.3684 25.9659 68.737 32.5648 73.5397 31.598C78.3424 30.6312 80.7744 22.467 79.2449 14.8398C77.7153 7.21274 72.8209 2.99251 68.0181 3.95932C63.2154 4.92614 60.3093 10.7117 61.8388 18.3388Z" fill="#FFCAA6"/>
<path d="M63.7048 23.9095C63.7048 23.9095 61.3953 19.5665 62.42 16.4973C63.4448 13.428 65.3261 14.2721 67.2534 13.2132C69.1806 12.1389 69.0888 9.53006 71.8725 9.00828C74.6716 8.48651 76.8894 11.0033 76.92 12.3384C76.9353 13.6736 76.7211 15.5612 77.8071 17.0497C78.8931 18.5383 79.6731 20.4413 79.6731 20.4413C79.6731 20.4413 82.1204 17.8017 81.8451 14.5636C81.5697 11.3256 79.0919 9.68352 78.6789 8.28701C78.2813 6.8905 78.7401 3.45293 75.1457 1.15098C71.536 -1.16631 67.3145 0.659899 66.6415 0.859401C65.9685 1.04356 63.2766 -0.260879 60.9364 2.37868C58.5962 5.0029 59.4833 8.05681 59.1927 9.25383C58.9021 10.4508 57.0973 11.5711 58.1832 15.8834C59.2539 20.1957 63.7048 23.9095 63.7048 23.9095Z" fill="#51495B"/>
<path d="M77.0118 27.5926L77.8071 27.0709L80.6826 36.3093C80.6826 36.3093 80.9121 39.087 77.0882 40.3454C73.2644 41.6038 71.8878 38.9489 71.8878 38.9489L70.7254 29.7411L77.0118 27.5926Z" fill="#FFCAA6"/>
<path d="M70.9395 31.4292C70.9395 31.4292 72.882 32.0584 75.0692 31.0149C77.2565 29.9713 77.9906 27.6387 77.9906 27.6387L78.633 29.6797C78.633 29.6797 78.373 32.5802 75.8187 33.9613C73.2644 35.3425 71.4137 35.0663 71.4137 35.0663L70.9395 31.4292Z" fill="#F2B186"/>
<path d="M98.7157 54.6942L93.6836 50.6121C93.6836 50.6121 98.1957 74.6597 99.7252 79.8774C101.255 85.0952 102.188 88.3946 101.408 90.5585C100.628 92.7376 99.5876 94.2723 99.5876 94.2723C99.5876 94.2723 104.13 92.3693 106.486 91.203C108.857 90.0213 107.679 85.1105 106.914 83.1922C106.165 81.274 104.451 78.3582 103.977 77.0537C103.534 75.7339 98.7157 54.6942 98.7157 54.6942Z" fill="#E0D5D8"/>
<path d="M36.8769 121.282C36.8769 121.282 36.571 121.343 36.2345 120.192C35.898 119.057 35.7604 117.445 35.7604 117.445C35.7604 117.445 33.512 116.954 30.4835 117.921C30.3 121.85 30.9729 128.019 30.9729 128.019L33.359 127.835L36.8769 121.282Z" fill="#80CFD4"/>
<path d="M32.4107 117.461C32.4107 117.461 32.2577 120.883 32.6095 123.093C32.9613 125.302 33.9708 127.205 33.1449 129.231C31.4318 129.154 30.8047 128.495 30.8047 128.495C30.8047 128.495 30.8659 127.129 30.7435 125.502C30.6211 123.875 30.2387 119.732 30.4835 117.921C31.0647 117.752 32.4107 117.461 32.4107 117.461Z" fill="#43F9F9"/>
<path d="M90.0892 50.2745C90.0892 50.2745 89.6762 69.1504 84.9959 76.9464C80.3155 84.7423 64.179 88.5481 64.179 88.5481L64.7755 91.8629C64.7755 91.8629 87.7796 89.914 93.6836 82.6552C99.5876 75.381 100.49 56.1828 100.414 48.9854C96.1614 48.9087 90.0892 50.2745 90.0892 50.2745Z" fill="#FFCAA6"/>
<path d="M64.179 88.5635C64.179 88.5635 60.3246 89.1159 59.621 89.6684C58.9175 90.2209 59.101 92.6609 59.101 92.6609C59.101 92.6609 58.688 94.7173 59.0857 95.0089C59.4681 95.3005 64.3014 93.7505 65.7544 91.51C67.2075 89.2541 64.179 88.5635 64.179 88.5635Z" fill="#FFCAA6"/>
<path d="M92.6129 35.6034C92.6129 35.6034 95.4884 35.0816 98.624 40.683C101.76 46.2844 100.796 55.1392 100.796 55.1392L88.9115 55.5996C88.9115 55.5996 84.2158 37.9667 92.6129 35.6034Z" fill="#EFE6E8"/>
</g>
<defs>
<clipPath id="clip0">
<rect width="108" height="191" fill="white"/>
</clipPath>
</defs>
</svg>
