<svg width="93" height="26" viewBox="0 0 93 26" fill="none" xmlns="http://www.w3.org/2000/svg">
<g>
<g clip-path="">
<path d="M32.0454 0C30.4196 0 29.3527 1.3 29.3527 2.9L29.2002 5.5C29.2002 5.75 28.997 5.95 28.743 5.95H26.9139C26.6599 5.95 26.4567 5.75 26.4567 5.5L26.3042 2.95C26.3042 1.35 25.1865 0.05 23.5099 0.05C21.884 0.05 20.9187 1.35 20.9187 2.95L20.563 15.15C20.563 16.8 21.9348 18.1 23.6115 18.05C25.2373 18 26.5075 16.65 26.5075 15.1V12.25C26.5075 12 26.7107 11.8 26.9647 11.8H28.743C28.997 11.8 29.2002 12 29.2002 12.25V15.1C29.2002 16.7 30.4704 18.05 32.0962 18.05C33.7729 18.1 35.1446 16.8 35.1446 15.15L34.6366 2.9C34.6366 1.3 33.6712 0 32.0454 0Z" fill="white"/>
<path d="M86.0532 18C84.4274 18 83.1064 16.7 83.1064 15.1L83.6653 2.9C83.6653 1.3 84.4274 0 86.0532 0C87.6791 0 88.6444 1.3 88.6444 2.9L89 15.1C89 16.7 87.6791 18 86.0532 18Z" fill="white"/>
<path d="M63.6982 0.2L54.4513 0C53.1303 0 52.0634 1.05 52.0634 2.3C52.0126 3.6 53.1811 4.7 54.5021 4.7H55.6707C55.9247 4.7 56.1279 4.9 56.1279 5.15L56.382 15.1C56.382 16.7 57.4489 18 59.0747 18C60.7005 18 61.7675 16.7 61.7675 15.1L62.0215 5.1C62.0215 4.85 62.2248 4.7 62.428 4.65L63.6982 4.5C65.0191 4.5 66.0861 3.65 66.0861 2.35C66.0861 1.05 65.0191 0.2 63.6982 0.2Z" fill="white"/>
<path d="M79.1942 0.2L69.9474 0C68.6264 0 67.5595 1.05 67.5595 2.3C67.5087 3.6 68.6772 4.7 69.9982 4.7H71.1667C71.4208 4.7 71.624 4.9 71.624 5.15L71.878 15.1C71.878 16.7 72.945 18 74.5708 18C76.1966 18 77.2636 16.7 77.2636 15.1L77.5176 5.1C77.5176 4.85 77.7208 4.7 77.9241 4.65L79.1942 4.5C80.5152 4.5 81.5822 3.65 81.5822 2.35C81.5822 1.05 80.5152 0.2 79.1942 0.2Z" fill="white"/>
<path d="M52.419 14L50.844 10.15V10.1C47.1351 1.19999 47.1859 1.69998 47.0335 1.39998C46.8302 1.09998 46.5762 0.799985 46.2714 0.549985C44.6963 -0.600015 42.8673 0.299985 42.156 2.04998C41.902 2.64998 37.1261 13.5 36.9229 14C36.3132 15.5 37.0245 17.2 38.5487 17.8C38.9044 17.95 39.3108 18 39.6665 18C40.835 18 41.9528 17.3 42.41 16.2L43.1213 14.5C43.1721 14.35 43.3754 14.2 43.5786 14.2H45.8141C46.0173 14.2 46.1697 14.3 46.2714 14.5L46.9827 16.2C47.5923 17.7 49.3198 18.4 50.844 17.8C52.3174 17.2 53.0287 15.5 52.419 14ZM45.1028 10.25H44.1883C43.8326 10.25 43.5786 9.84999 43.7818 9.54998L44.2391 8.29998C44.4423 7.99998 44.8488 7.99998 45.052 8.29998L45.5093 9.54998C45.7125 9.89999 45.4585 10.25 45.1028 10.25Z" fill="white"/>
<path d="M13.0944 18C14.6186 18 16.0921 17.8 17.4638 17.1C18.8864 16.35 19.9026 14.85 19.1405 13.45C18.5816 12.45 17.413 12.25 16.3461 12.3C15.8888 12.3 13.8057 12.55 13.2469 12.55C11.4686 12.55 9.99522 11.1 9.99522 9.35C9.99522 8.1 10.8081 6.9 11.9767 6.4C12.434 6.2 13.0944 6.15 13.6025 6.15C14.263 6.1 14.9743 6.2 15.6348 6.3C16.8033 6.45 18.2259 6.55 18.8356 5.3C19.4453 4 18.8356 2.65 17.7687 1.85C16.6001 0.95 14.7203 0.5 13.2469 0.5C8.11536 0.55 4 4.4 4 9.35C4 14.35 8.01375 18 13.0944 18Z" fill="white"/>
</g>
</g>
<defs>
<filter id="filter0_d" x="0" y="0" width="93" height="26" filterUnits="userSpaceOnUse" color-interpolation-filters="sRGB">
<feFlood flood-opacity="0" result="BackgroundImageFix"/>
<feColorMatrix in="SourceAlpha" type="matrix" values="0 0 0 0 0 0 0 0 0 0 0 0 0 0 0 0 0 0 127 0"/>
<feOffset dy="4"/>
<feGaussianBlur stdDeviation="2"/>
<feColorMatrix type="matrix" values="0 0 0 0 0 0 0 0 0 0 0 0 0 0 0 0 0 0 0.25 0"/>
<feBlend mode="normal" in2="BackgroundImageFix" result="effect1_dropShadow"/>
<feBlend mode="normal" in="SourceGraphic" in2="effect1_dropShadow" result="shape"/>
</filter>
<clipPath id="clip0">
<rect x="4" width="85" height="18" fill="white"/>
</clipPath>
</defs>
</svg>
