<svg width="22" height="16" viewBox="0 0 22 16" fill="none" xmlns="http://www.w3.org/2000/svg">
<path d="M15.0051 0C17.0534 0 18.7239 1.78627 18.7239 3.98692C18.7239 6.18757 17.0574 7.97384 15.0051 7.97384C12.9529 7.97384 11.2864 6.18757 11.2864 3.98692C11.2864 1.78627 12.9529 0 15.0051 0Z" fill="#163C9B"/>
<path d="M6.55341 0.571289C6.56137 0.571289 6.56932 0.571289 6.57727 0.571289C7.43636 0.579335 8.23977 0.94544 8.84034 1.60523C9.42898 2.25296 9.74716 3.10988 9.7392 4.01509C9.73125 4.92029 9.39716 5.76917 8.80057 6.40885C8.19602 7.05255 7.39659 7.40659 6.54546 7.40659C6.5375 7.40659 6.52955 7.40659 6.52159 7.40659C5.6625 7.39854 4.85909 7.03244 4.25853 6.37264C3.66989 5.72492 3.35171 4.86799 3.35966 3.96279C3.37557 2.08399 4.80739 0.571289 6.55341 0.571289Z" fill="#163C9B"/>
<path d="M6.39829 8.05432H6.70454C8.14034 8.05432 9.45284 8.60549 10.4432 9.51472C10.1966 9.70783 9.95795 9.91703 9.73522 10.1423C9.075 10.8102 8.55795 11.5866 8.19602 12.4516C7.86988 13.2321 7.68295 14.0528 7.6392 14.8977H0.818181V13.6948C0.818181 10.5849 3.31988 8.05432 6.39829 8.05432Z" fill="#163C9B"/>
<path d="M8.83638 14.8976C8.94774 13.063 9.86649 11.4498 11.2386 10.4158C12.2369 9.66349 13.4739 9.21692 14.8142 9.21692H15.1841C18.5011 9.22094 21.1818 11.9325 21.1818 15.2798V15.9999H8.82842V15.2798C8.82842 15.151 8.8324 15.0263 8.83638 14.8976Z" fill="#163C9B"/>
</svg>
