<svg width="164" height="163" viewBox="0 0 164 163" fill="none" xmlns="http://www.w3.org/2000/svg">
<g clip-path="url(#clip0)">
<path d="M39.2702 88.6643C35.2342 88.6643 31.967 91.9339 31.967 95.9729C31.967 100.012 35.2342 103.281 39.2702 103.281C43.3061 103.281 46.5733 100.012 46.5733 95.9729C46.5733 91.9339 43.2741 88.6643 39.2702 88.6643ZM39.2702 98.4732C37.8928 98.4732 36.7717 97.3512 36.7717 95.9729C36.7717 94.5945 37.8928 93.4726 39.2702 93.4726C40.6475 93.4726 41.7686 94.5945 41.7686 95.9729C41.7686 97.3512 40.6155 98.4732 39.2702 98.4732Z" fill="#26E2E2"/>
<path d="M105.287 135.144C104.966 134.15 104.037 133.477 103.012 133.477H88.7265L84.3062 119.854C83.9859 118.86 83.057 118.187 82.032 118.187C81.007 118.187 80.046 118.86 79.7578 119.854L75.3374 133.477H61.0515C59.9945 133.477 59.0976 134.15 58.7773 135.144C58.457 136.138 58.8093 137.228 59.6421 137.837L71.2054 146.235L66.7851 159.859C66.4648 160.82 66.7851 161.878 67.5859 162.487C68.4187 163.16 69.6359 163.16 70.5007 162.551L82.064 154.153L93.6273 162.551C94.5242 163.224 95.8054 163.16 96.6382 162.391C97.3429 161.75 97.6312 160.756 97.3429 159.859L92.9226 146.235L104.422 137.837C105.255 137.196 105.607 136.138 105.287 135.144ZM88.5984 143.35C87.7656 143.959 87.4132 145.049 87.7335 146.043L90.3921 154.249L83.4093 149.152C82.5765 148.543 81.4234 148.543 80.5906 149.152L73.6078 154.249L76.2663 146.043C76.5867 145.049 76.2343 143.959 75.4015 143.35L68.4187 138.253H77.0671C78.1242 138.253 79.021 137.58 79.3413 136.587L81.9999 128.381L84.6585 136.587C84.9788 137.58 85.9077 138.253 86.9327 138.253H95.5812L88.5984 143.35Z" fill="#26E2E2"/>
<path d="M163.872 135.144C163.552 134.15 162.623 133.477 161.598 133.477H147.312L142.891 119.854C142.571 118.86 141.642 118.187 140.617 118.187C139.592 118.187 138.631 118.86 138.343 119.854L133.891 133.477H119.605C118.548 133.477 117.651 134.15 117.331 135.144C117.01 136.138 117.363 137.228 118.195 137.837L129.759 146.235L125.338 159.859C125.018 160.82 125.338 161.878 126.139 162.487C126.972 163.16 128.189 163.16 129.054 162.551L140.617 154.153L152.148 162.519C153.045 163.192 154.327 163.128 155.159 162.359C155.864 161.718 156.152 160.724 155.864 159.827L151.444 146.203L163.007 137.805C163.84 137.196 164.192 136.106 163.872 135.144ZM147.184 143.35C146.351 143.959 145.998 145.049 146.319 146.043L148.977 154.249L141.995 149.152C141.162 148.543 140.009 148.543 139.176 149.152L132.193 154.249L134.852 146.043C135.172 145.049 134.82 143.959 133.987 143.35L127.004 138.253H135.652C136.709 138.253 137.606 137.58 137.927 136.587L140.585 128.381L143.244 136.587C143.564 137.58 144.493 138.253 145.518 138.253H154.166L147.184 143.35Z" fill="#26E2E2"/>
<path d="M46.7016 135.144C46.3812 134.15 45.4523 133.477 44.4273 133.477H30.1094L25.6891 119.854C25.3687 118.86 24.4398 118.187 23.4148 118.187C22.3898 118.187 21.4609 118.86 21.1406 119.854L16.7203 133.477H2.40234C1.34531 133.477 0.448432 134.15 0.12812 135.144C-0.192193 136.138 0.160151 137.228 0.992964 137.837L12.5562 146.235L8.13593 159.859C7.81562 160.852 8.16796 161.942 9.00078 162.551C9.83359 163.16 10.9867 163.16 11.8195 162.551L23.3828 154.153L34.9461 162.551C35.843 163.224 37.1242 163.16 37.957 162.391C38.6617 161.75 38.95 160.756 38.6617 159.859L34.2734 146.235L45.8367 137.837C46.6695 137.196 47.0219 136.138 46.7016 135.144ZM30.0133 143.35C29.1805 143.959 28.8281 145.049 29.1484 146.043L31.807 154.249L24.8242 149.152C23.9914 148.543 22.8383 148.543 22.0055 149.152L15.0227 154.249L17.6812 146.043C18.0016 145.049 17.6492 143.959 16.8164 143.35L9.83359 138.253H18.482C19.5391 138.253 20.4359 137.58 20.7562 136.587L23.4148 128.381L26.0734 136.587C26.3937 137.58 27.3227 138.253 28.3477 138.253H36.9961L30.0133 143.35Z" fill="#26E2E2"/>
<path d="M144.525 60.0391C147.023 58.0517 148.593 54.9744 148.593 51.5445C148.593 45.5181 143.692 40.6137 137.67 40.6137H98.9765C100.194 37.9852 101.571 33.9783 102.372 28.4328C104.23 15.5146 101.443 8.65481 98.7523 5.16081C96.5101 2.2438 93.4671 0.448713 90.0078 0.031997C87.0609 -0.320609 84.4023 1.98736 84.3062 4.93642C83.8578 9.5844 82.1921 22.2782 79.8539 27.0224C73.8 39.1712 59.3218 46.4157 54.8695 48.4031C53.3 47.0568 51.282 46.2554 49.0718 46.2554H29.4687C24.5359 46.2554 20.532 50.2623 20.532 55.1988V104.147C20.532 109.083 24.5359 113.09 29.4687 113.09H49.0398C51.6664 113.09 54.0367 111.936 55.6703 110.109C58.2007 111.712 62.3007 113.507 67.9703 113.507H130.88C136.902 113.507 141.802 108.602 141.802 102.576C141.802 99.8194 140.777 97.287 139.08 95.3637C142.699 93.6007 145.198 89.8503 145.198 85.5549C145.198 82.7982 144.173 80.2658 142.475 78.3425C146.094 76.5795 148.593 72.829 148.593 68.5337C148.593 65.1358 146.991 62.0585 144.525 60.0391ZM49.0398 108.25H29.4687C27.1945 108.25 25.3687 106.391 25.3687 104.147V55.1988C25.3687 52.9228 27.2265 51.0957 29.4687 51.0957H49.0398C50.1929 51.0957 51.2179 51.5765 51.9867 52.3459V106.07C51.9867 106.359 52.0507 106.647 52.1468 106.904C51.3781 107.705 50.257 108.25 49.0398 108.25ZM127.58 62.4753H137.702C141.066 62.4753 143.788 65.1999 143.788 68.5657C143.788 71.9315 141.066 74.6562 137.702 74.6562H127.58C126.267 74.6562 125.178 75.7461 125.178 77.0603C125.178 78.3746 126.267 79.4644 127.58 79.4644H134.307C137.67 79.4644 140.393 82.1891 140.393 85.5549C140.393 88.9207 137.67 91.6454 134.307 91.6454H125.755C124.441 91.6454 123.352 92.7352 123.352 94.0495C123.352 95.3637 124.441 96.4536 125.755 96.4536H130.912C134.275 96.4536 136.998 99.1783 136.998 102.544C136.998 105.91 134.275 108.635 130.912 108.635H67.9703C63.0054 108.635 59.6421 106.968 57.8164 105.718C57.9125 105.205 57.9765 104.66 57.9765 104.083V55.1988C57.9765 54.2692 57.8164 53.3396 57.5601 52.5061C63.1976 49.9097 77.6437 42.2485 84.1781 29.2021C87.4453 22.6629 89.0788 6.05835 89.1429 5.35314C89.1429 5.28903 89.1429 5.19286 89.1429 5.12875C89.1429 5.03259 89.1749 4.96848 89.239 4.93642C89.3351 4.87231 89.3992 4.87231 89.4312 4.87231C90.9367 5.06464 93.1148 5.76985 94.9406 8.17398C97.0546 10.9307 99.2007 16.5404 97.5992 27.8237C96.2218 37.3761 93.0187 41.5433 92.9867 41.5754C91.7374 43.114 92.8585 45.5181 94.8445 45.5181H137.702C141.066 45.5181 143.788 48.2428 143.788 51.6086C143.788 54.9744 141.066 57.6991 137.702 57.6991H127.58C126.267 57.6991 125.178 58.7889 125.178 60.1032C125.178 61.4174 126.235 62.4753 127.58 62.4753Z" fill="#26E2E2"/>
</g>
<defs>
<clipPath id="clip0">
<rect width="164" height="163" fill="white"/>
</clipPath>
</defs>
</svg>
