<svg width="32" height="30" viewBox="0 0 32 30" fill="none" xmlns="http://www.w3.org/2000/svg">
<g filter="">
<path d="M16 18.6665C14.7624 18.6665 13.5754 18.1748 12.7002 17.2997C11.825 16.4245 11.3334 15.2375 11.3334 13.9998C11.3334 12.7622 11.825 11.5752 12.7002 10.7C13.5754 9.82484 14.7624 9.33317 16 9.33317C17.2377 9.33317 18.4247 9.82484 19.2999 10.7C20.175 11.5752 20.6667 12.7622 20.6667 13.9998C20.6667 15.2375 20.175 16.4245 19.2999 17.2997C18.4247 18.1748 17.2377 18.6665 16 18.6665ZM25.9067 15.2932C25.96 14.8665 26 14.4398 26 13.9998C26 13.5598 25.96 13.1198 25.9067 12.6665L28.72 10.4932C28.9734 10.2932 29.04 9.93317 28.88 9.63984L26.2134 5.02651C26.0534 4.73317 25.6934 4.61317 25.4 4.73317L22.08 6.06651C21.3867 5.54651 20.6667 5.09317 19.8267 4.75984L19.3334 1.22651C19.3063 1.06946 19.2245 0.927076 19.1025 0.824575C18.9804 0.722074 18.8261 0.666078 18.6667 0.666506H13.3334C13 0.666506 12.72 0.906506 12.6667 1.22651L12.1734 4.75984C11.3334 5.09317 10.6134 5.54651 9.92003 6.06651L6.60003 4.73317C6.3067 4.61317 5.9467 4.73317 5.7867 5.02651L3.12003 9.63984C2.9467 9.93317 3.0267 10.2932 3.28003 10.4932L6.09336 12.6665C6.04003 13.1198 6.00003 13.5598 6.00003 13.9998C6.00003 14.4398 6.04003 14.8665 6.09336 15.2932L3.28003 17.5065C3.0267 17.7065 2.9467 18.0665 3.12003 18.3598L5.7867 22.9732C5.9467 23.2665 6.3067 23.3732 6.60003 23.2665L9.92003 21.9198C10.6134 22.4532 11.3334 22.9065 12.1734 23.2398L12.6667 26.7732C12.72 27.0932 13 27.3332 13.3334 27.3332H18.6667C19 27.3332 19.28 27.0932 19.3334 26.7732L19.8267 23.2398C20.6667 22.8932 21.3867 22.4532 22.08 21.9198L25.4 23.2665C25.6934 23.3732 26.0534 23.2665 26.2134 22.9732L28.88 18.3598C29.04 18.0665 28.9734 17.7065 28.72 17.5065L25.9067 15.2932Z" fill="white"/>
</g>
<defs>
<filter id="filter0_d" x="-0.972412" y="0.666504" width="33.939" height="34.6667" filterUnits="userSpaceOnUse" color-interpolation-filters="sRGB">
<feFlood flood-opacity="0" result="BackgroundImageFix"/>
<feColorMatrix in="SourceAlpha" type="matrix" values="0 0 0 0 0 0 0 0 0 0 0 0 0 0 0 0 0 0 127 0"/>
<feOffset dy="4"/>
<feGaussianBlur stdDeviation="2"/>
<feColorMatrix type="matrix" values="0 0 0 0 0 0 0 0 0 0 0 0 0 0 0 0 0 0 0.25 0"/>
<feBlend mode="normal" in2="BackgroundImageFix" result="effect1_dropShadow"/>
<feBlend mode="normal" in="SourceGraphic" in2="effect1_dropShadow" result="shape"/>
</filter>
</defs>
</svg>
