<svg width="84" height="84" viewBox="0 0 84 84" fill="none" xmlns="http://www.w3.org/2000/svg">
<path d="M12.3375 11.5008C20.2617 4.08516 30.7945 0 42 0C53.2055 0 63.7383 4.08516 71.6625 11.5008C79.6195 18.9492 84 28.8422 84 39.375C84 50.0391 79.5375 61.1133 71.7445 69.7922C67.8234 74.1562 63.3445 77.6016 58.4227 80.0461C53.1563 82.6711 47.6273 84 42 84C36.3727 84 30.8602 82.6711 25.5773 80.0461C20.6555 77.6016 16.1602 74.1398 12.2555 69.7922C4.4625 61.1133 0 50.0391 0 39.375C0 28.8422 4.38047 18.9492 12.3375 11.5008ZM26.25 18.375C22.6242 18.375 19.6875 21.3117 19.6875 24.9375C19.6875 25.6594 20.2781 26.25 21 26.25C21.7219 26.25 22.3125 25.6594 22.3125 24.9375C22.3125 22.7555 24.068 21 26.25 21C28.432 21 30.1875 22.7555 30.1875 24.9375C30.1875 25.6594 30.7781 26.25 31.5 26.25C32.2219 26.25 32.8125 25.6594 32.8125 24.9375C32.8125 21.3117 29.8758 18.375 26.25 18.375ZM57.75 18.375C54.1242 18.375 51.1875 21.3117 51.1875 24.9375C51.1875 25.6594 51.7781 26.25 52.5 26.25C53.2219 26.25 53.8125 25.6594 53.8125 24.9375C53.8125 22.7555 55.568 21 57.75 21C59.932 21 61.6875 22.7555 61.6875 24.9375C61.6875 25.6594 62.2781 26.25 63 26.25C63.7219 26.25 64.3125 25.6594 64.3125 24.9375C64.3125 21.3117 61.3758 18.375 57.75 18.375ZM76.125 24.9375C76.125 22.7555 74.3695 21 72.1875 21C70.0055 21 68.25 22.7555 68.25 24.9375C68.25 27.1195 70.0055 28.875 72.1875 28.875C74.3695 28.875 76.125 27.1195 76.125 24.9375ZM13.125 36.0938C14.5523 36.1102 15.9633 35.7656 17.2266 35.0766C17.8664 39.5391 20.393 43.6406 24.4945 46.8398C29.1867 50.4984 35.4047 52.5 42 52.5C48.5953 52.5 54.8133 50.4984 59.5055 46.8398C63.607 43.657 66.1336 39.5391 66.7734 35.0766C68.0367 35.7656 69.4477 36.1102 70.875 36.0938C71.5969 36.0938 72.1875 35.5031 72.1875 34.7812C72.1875 34.0594 71.5969 33.4688 70.875 33.4688C66.7242 33.4688 65.6086 29.9742 65.5758 29.8266C65.3789 29.1211 64.657 28.7273 63.9516 28.9242C63.2461 29.1211 62.8523 29.843 63.0492 30.5484V30.5648C63.3117 31.4344 63.7383 32.2547 64.3125 32.9602C64.2141 42.3117 54.2391 49.8914 42 49.8914C29.7609 49.8914 19.7859 42.3117 19.6875 32.9602C20.2453 32.2383 20.6719 31.4344 20.9508 30.5648C21.1477 29.8758 20.7539 29.1375 20.0484 28.9406C19.343 28.7437 18.6211 29.1375 18.4242 29.843C18.375 29.9906 17.2758 33.4852 13.125 33.4852C12.4031 33.4852 11.8125 34.0758 11.8125 34.7977C11.8125 35.5195 12.4031 36.0938 13.125 36.0938ZM11.8125 28.875C13.9945 28.875 15.75 27.1195 15.75 24.9375C15.75 22.7555 13.9945 21 11.8125 21C9.63047 21 7.875 22.7555 7.875 24.9375C7.875 27.1195 9.63047 28.875 11.8125 28.875Z" fill="#26E2E2"/>
</svg>
