<?xml version="1.0" encoding="utf-8"?>
<!-- Generator: Adobe Illustrator 24.0.0, SVG Export Plug-In . SVG Version: 6.00 Build 0)  -->
<svg version="1.1" id="Layer_1" xmlns="http://www.w3.org/2000/svg" xmlns:xlink="http://www.w3.org/1999/xlink" x="0px" y="0px"
	 viewBox="0 0 128 128" style="enable-background:new 0 0 128 128;" xml:space="preserve">
<style type="text/css">
	.st0{fill:#740499;}
</style>
<path class="st0" d="M8.8,1l10.1,112.9l45.1,12.6l45.2-12.6L119.2,1C119.2,1,8.8,1,8.8,1z M98.4,26.9L95,64.5l0,0.2l0,0.5v0
	l-2.4,26.3l-0.3,2.3L64,101.6v0l0,0l-28.3-7.9L33.8,72h13.9l1,11.1L64,87.2l0,0v0L79.4,83l1.6-18H48.8l-0.3-3l-0.6-7.1L47.6,51h34.7
	l1.3-14H30.6l-0.3-3l-0.6-7.1L29.4,23h69.3C98.7,23,98.4,26.9,98.4,26.9z"/>
</svg>
