<?xml version="1.0" encoding="utf-8"?>
<!-- Generator: Adobe Illustrator 24.0.0, SVG Export Plug-In . SVG Version: 6.00 Build 0)  -->
<svg version="1.1" id="Handlebars" xmlns="http://www.w3.org/2000/svg" xmlns:xlink="http://www.w3.org/1999/xlink" x="0px" y="0px"
	 viewBox="0 0 128 128" style="enable-background:new 0 0 128 128;" xml:space="preserve">
<style type="text/css">
	.st0{fill:#740499;}
</style>
<title>Artboard 7</title>
<g id="original">
	<path id="Path-2" class="st0" d="M14.6,62.7c1.1-0.9,1.9-2.1,2.3-3.5c0.5-2,0.4-3.9-2.3-5.3C7.8,50.5,3.5,56.6,2.8,58
		s-1.7,3.7-1,8.8s3.2,9.9,11,11.7c7.4,1.7,15.2,0.8,22-2.6c6.8-3.3,19.7-9,22.9-9.6c2.1-0.5,4.3-0.8,6.5-0.8v-7.9
		c-3.5-6.2-10.3-9.8-17.4-9.1c-12.4,1-17.3,7.4-20.3,10.1s-8.6,9.2-12.4,8s-4.8-5.7-3.5-7.1s2.4-1.2,3.2,0
		C14.3,60.5,14.6,61.6,14.6,62.7z"/>
	<path id="Path-2-Copy" class="st0" d="M113.4,62.7c-1.1-0.9-1.9-2.1-2.3-3.5c-0.5-2-0.4-3.9,2.3-5.3c6.8-3.4,11.1,2.7,11.8,4.1
		s1.7,3.7,1,8.8s-3.2,9.9-11,11.7c-7.4,1.7-15.2,0.8-22-2.6c-6.8-3.3-19.7-9-22.9-9.6c-2.1-0.5-4.3-0.8-6.5-0.8v-7.9
		c3.5-6.2,10.3-9.8,17.4-9.1c12.4,1,17.3,7.4,20.3,10.1s8.6,9.2,12.4,8s4.8-5.8,3.5-7.2s-2.4-1.2-3.2,0
		C113.7,60.5,113.4,61.6,113.4,62.7z"/>
</g>
</svg>
