<?xml version="1.0" encoding="utf-8"?>
<!-- Generator: Adobe Illustrator 24.0.0, SVG Export Plug-In . SVG Version: 6.00 Build 0)  -->
<svg version="1.1" id="Layer_1" xmlns="http://www.w3.org/2000/svg" xmlns:xlink="http://www.w3.org/1999/xlink" x="0px" y="0px"
	 viewBox="0 0 128 128" style="enable-background:new 0 0 128 128;" xml:space="preserve">
<style type="text/css">
	.st0{fill:#740499;}
</style>
<g>
	<path class="st0" d="M114,13.9C114,7.3,108.7,2,102.1,2H25.9C19.3,2,14,7.3,14,13.9v100.3c0,6.6,5.3,11.9,11.9,11.9h76.3
		c6.6,0,11.9-5.3,11.9-11.9V13.9L114,13.9z M110,14v99.3c0,4.7-3.5,8.7-8.2,8.7H26.5c-4.7,0-8.5-4-8.5-8.7V14c0-4.7,3.9-8,8.5-8
		h75.2c4.7,0,8.4,3.6,8.4,8.3L110,14z M37,108.7l14.1-14.1L37,80.5V108.7z M51,47.8V18.4l-13.9,0.1c0,0,0.1,45.9,0.2,45.7
		C80.1,47.5,77,59.4,77,59.4v49.4l-0.1,0.2H90V59.5C90,32.4,51,47.8,51,47.8z M70,36h14.8c8-10,10.7-17,10.7-17H80.2
		C80.2,19,75.3,30,70,36z"/>
</g>
</svg>
