<?xml version="1.0" encoding="utf-8"?>
<!-- Generator: Adobe Illustrator 24.0.0, SVG Export Plug-In . SVG Version: 6.00 Build 0)  -->
<svg version="1.1" id="Yarn" xmlns="http://www.w3.org/2000/svg" xmlns:xlink="http://www.w3.org/1999/xlink" x="0px" y="0px"
	 viewBox="0 0 128 128" style="enable-background:new 0 0 128 128;" xml:space="preserve">
<style type="text/css">
	.st0{fill:#740499;}
</style>
<title>Artboard 7</title>
<g id="original">
	<path class="st0" d="M99.2,80.7c-4.3,0.1-8.1,2.3-11.3,4.3c-6,3.7-9,3.5-9,3.5l-0.1-0.2c-0.4-0.7,1.9-6.7-0.7-13.8
		c-2.8-7.8-7.3-9.7-6.9-10.3c1.5-2.6,5.4-6.7,6.9-14.4c0.9-4.6,0.7-12.3-1.4-16.3c-0.4-0.7-3.8,1.2-3.8,1.2s-3.2-7.1-4.1-7.7
		c-2.9-1.8-6,7.6-6,7.6c-4.4-0.4-8.7,1.2-11.7,4.5c-1.1,1-2.4,1.8-3.8,2.3c-0.4,0.1-0.9,0.1-2.2,3.5c-1.9,5.1,3.2,10.8,3.2,10.8
		s-6.1,4.3-8.4,9.7c-1.5,3.7-2.1,7.7-1.8,11.7c0,0-4.4,3.8-4.6,7.7c-0.3,2.7,0.4,5.5,1.8,7.8c0.5,1,1.6,1.4,2.6,0.9c0,0,0,0,0.1,0
		c0,0-2.9,3.4-0.2,4.8c2.5,1.3,6.6,2,8.8-0.2c1.6-1.6,1.9-5.2,2.5-6.6c0.1-0.3,0.6,0.6,1.1,1c0.4,0.4,0.9,0.7,1.4,1
		c0,0-3.9,1.7-2.3,5.5c0.5,1.3,2.4,2.1,5.5,2.1c1.2,0,13.8-0.7,17.1-1.5c1-0.2,1.9-0.7,2.6-1.5c5.5-1.6,10.7-4,15.5-7
		c4.7-3.1,6.7-3.9,10.5-4.8C103.6,85.5,103.4,80.6,99.2,80.7z"/>
	<path class="st0" d="M64,2C29.8,2,2,29.8,2,64s27.8,62,62,62s62-27.8,62-62S98.2,2,64,2z M101.3,89.8c-3.3,0.8-4.9,1.4-9.4,4.4
		c-4.9,3-10.1,5.5-15.6,7.2c-1.1,0.9-2.3,1.5-3.6,1.8c-3.8,0.9-16.9,1.6-17.9,1.6h-0.2c-4,0-6.3-1.2-7.5-2.5c-3.4,1.7-7.8,1-11-0.7
		c-1.6-0.8-2.7-2.2-3-3.9c-0.1-0.7-0.1-1.4,0-2.1c-0.3-0.3-0.6-0.6-0.8-1c-1.8-3-2.6-6.6-2.3-10.1c0.3-3.7,2.9-7.1,4.5-8.8
		c-0.1-4,0.6-8,2.1-11.7c1.6-3.5,3.9-6.5,6.8-9c-1.7-2.8-3.3-7.1-1.7-11.4c1.2-3.1,2.1-4.8,4.2-5.6l0,0c0.9-0.3,1.8-0.7,2.5-1.3
		c3.1-3.3,7.3-5.4,11.9-5.7c0.2-0.5,0.4-1,0.7-1.5c1.6-3.4,3.3-5.3,5.3-6c1.5-0.5,3.1-0.4,4.4,0.5c0.7,0.4,1.5,1,3.9,6
		c0.9-0.3,1.9-0.4,2.8-0.1c1,0.3,1.9,1,2.4,1.9c2.5,4.7,2.8,13.2,1.7,18.6c-1,4.8-3,9.3-5.8,13.3c2.6,2.7,4.6,5.9,5.8,9.4
		c1.2,3.3,1.7,6.9,1.4,10.4c1.1-0.5,2.1-1.1,3.1-1.7c3.1-1.9,7.7-4.7,13.2-4.8c3.5-0.2,6.5,2.3,7,5.7
		C106.6,86.1,104.5,89.1,101.3,89.8z"/>
</g>
</svg>
