<?xml version="1.0" encoding="utf-8"?>
<!-- Generator: Adobe Illustrator 24.0.0, SVG Export Plug-In . SVG Version: 6.00 Build 0)  -->
<svg version="1.1" id="Yarn" xmlns="http://www.w3.org/2000/svg" xmlns:xlink="http://www.w3.org/1999/xlink" x="0px" y="0px"
	 viewBox="0 0 128 128" style="enable-background:new 0 0 128 128;" xml:space="preserve">
<style type="text/css">
	.st0{fill:#740499;}
</style>
<title>Artboard 5</title>
<g id="original-wordmark">
	<path class="st0" d="M79,63.9c-0.7,2.5-2,4.8-3.7,6.7V55.7c-0.1-1.1-1-1.9-2.1-1.9c-0.1,0-0.1,0-0.2,0c-0.6,0-1.1,0.3-1.1,0.7
		C72,55,72,55.5,72,55.9v6.8c-0.5,3-1.8,5.7-3.5,5.7c-1.2,0-2-1.2-2-3.5c0-2.9,0.4-5.8,1.2-8.6c0.2-0.6,1.4-2.3-0.7-2.3
		c-2.2,0-2,0.8-2.2,1.6c-0.8,3.1-1.3,6.3-1.4,9.6c0,3.7,1.6,6.1,4.4,6.1c1.8,0,3.1-1.2,4.2-2.9v5.4c-2.8,2.5-5.3,4.6-5.3,8.9
		c0,2.7,1.7,4.9,4.1,4.9c2.2,0,4.4-1.6,4.4-6v-7.4c3-2.4,5.2-5.7,6.2-9.4c0-0.1,0-0.3,0-0.4c0-0.8-0.6-1.5-1.4-1.8
		C79.6,62.6,79.2,63,79,63.9z M70.8,84.9c-0.7,0-1.1-1-1.1-2.3c-0.1-2.1,0.8-4.1,2.2-5.5v4.5C72,82.3,72.2,84.9,70.8,84.9L70.8,84.9
		z"/>
	<path class="st0" d="M91.2,68.5c-1,0-1.4-1-1.4-2v-7c-0.1-1.1-1-1.9-2.1-1.9c-0.1,0-0.1,0-0.2,0c-0.6,0-1.1,0.3-1.1,0.7
		c0.1,0.4,0.1,0.9,0.2,1.4v6.5c-0.5,1.2-1.2,2.2-2.4,2.2c-1.5,0-2.4-1.3-2.4-3.5c0-6.1,3.8-8.9,7-8.9c0.4,0,0.8,0.1,1.2,0.1
		s0.6-0.2,0.6-1c0-1-0.8-1.8-1.7-1.8c-0.1,0-0.2,0-0.3,0c-5.2,0-10.1,4.3-10.1,11.4c0,3.6,1.7,6.4,5.1,6.4c1.4,0,2.8-0.6,3.7-1.7
		c0.7,1.1,1.9,1.8,3.3,1.7c3.7,0,5.3-3.8,6.1-6.6c0-0.1,0-0.2,0-0.3c-0.1-0.8-0.6-1.5-1.4-1.7c-0.4,0-0.8,0.4-1,1.3
		C93.6,65.7,92.8,68.4,91.2,68.5L91.2,68.5z"/>
	<path class="st0" d="M103.4,71.3c3.7,0,5.3-3.8,6.1-6.6c0-0.1,0-0.2,0-0.3c0-0.9-0.7-1.6-1.5-1.7c-0.4,0-0.8,0.4-1,1.3
		c-0.4,1.9-1.1,4.6-3.1,4.6c-1.2,0-1.7-1.1-1.7-2.3c0-4.2,1.9-9.2,1.9-9.8c0.2-1-1.5-2.4-2-2.4h-2.2c-0.8,0-1.5-0.1-2.2-0.2
		c-0.2-1.3-1.4-2.3-2.7-2.2c-1.1-0.1-2.1,0.8-2.1,1.9c0,0,0,0.1,0,0.1c0,1.2,0.7,2.2,1.8,2.7c0,2.5-0.2,4.9-0.7,7.3
		c-0.4,1.4,1.8,3,2.4,1.2c0.7-2.6,1-5.2,1.1-7.8h3.7c-1.3,3-2,6.2-2.1,9.4C99.1,70.1,101.4,71.2,103.4,71.3L103.4,71.3z"/>
	<path class="st0" d="M107.2,69.4c-0.1,1,0.7,1.8,1.7,1.9c0.1,0,0.2,0,0.3,0c1.2,0,1.2-1,1.2-1.8v-6.2c0.3-3.3,2.9-7,4.2-7
		c0.8,0,0.9,1.1,0.9,2.4v8.6c0,2.2,1.3,4,3.6,4c3.7,0,5.4-3.8,6.2-6.6c0-0.1,0-0.2,0-0.3c0-0.9-0.7-1.6-1.5-1.7
		c-0.4,0-0.8,0.4-1,1.3c-0.4,1.9-1.2,4.6-2.9,4.6c-1.1,0-1.1-1.6-1.1-2v-8.8c0-2-0.7-4.3-3.5-4.3c-2.1,0-3.6,1.8-4.8,4.2v-1.9
		c-0.1-1.1-1-1.9-2.1-1.9c-0.1,0-0.1,0-0.2,0c-0.6,0-1.1,0.3-1.1,0.7c0.1,0.4,0.1,0.9,0.2,1.4L107.2,69.4L107.2,69.4z"/>
	<g id="icon">
		<path class="st0" d="M45.3,71.3c-1.8,0.2-3.5,0.8-4.9,1.9c-2.6,1.6-3.9,1.5-3.9,1.5v-0.1c-0.2-0.3,0.8-2.9-0.3-6
			c-1.2-3.4-3.2-4.2-3-4.5c1.4-1.8,2.5-4,3-6.2c0.4-2,0.3-5.3-0.6-7.1c-0.2-0.3-1.7,0.5-1.7,0.5c-0.5-1.2-1.1-2.3-1.8-3.3
			c-1.2-0.8-2.6,3.3-2.6,3.3c-1.9-0.2-3.8,0.6-5.1,2c-0.5,0.5-1,0.8-1.7,1c-0.2,0.1-0.4,0-0.9,1.5c-0.8,2.2,1.4,4.7,1.4,4.7
			c-1.5,1.1-2.8,2.6-3.7,4.2c-0.7,1.6-0.9,3.4-0.8,5.1c0,0-1.9,1.7-2,3.3c-0.1,1.2,0.2,2.4,0.8,3.4c0.2,0.4,0.7,0.6,1.1,0.4
			c0,0,0,0,0,0c0,0-1.3,1.5-0.1,2.1s2.9,0.9,3.9-0.1c0.7-0.7,0.8-2.2,1.1-2.9c0.1-0.2,0.3,0.2,0.5,0.4c0.2,0.2,0.4,0.3,0.6,0.4
			c-0.9,0.4-1.4,1.4-1,2.4c0,0,0,0,0,0c0.2,0.6,1,0.9,2.4,0.9c2.5-0.1,5-0.3,7.5-0.7c0.4-0.1,0.8-0.3,1.1-0.6
			c2.4-0.7,4.6-1.7,6.7-3.1c1.4-1,2.9-1.7,4.6-2.1c0.7-0.2,1.1-0.9,1-1.6S46.1,71.1,45.3,71.3z"/>
		<path class="st0" d="M30,37C15.1,37,3,49.1,3,64s12.1,27,27,27s27-12.1,27-27S44.9,37,30,37z M46.2,75.2c-1.5,0.3-2.9,1-4.1,1.9
			c-2.1,1.3-4.4,2.4-6.8,3.1c-0.5,0.4-1,0.6-1.6,0.8c-2.6,0.4-5.2,0.6-7.8,0.7h-0.1c-1.2,0.1-2.4-0.3-3.3-1.1
			c-1.6,0.6-3.3,0.5-4.8-0.3c-0.7-0.3-1.1-1-1.3-1.7c-0.1-0.3-0.1-0.6,0-0.9c-0.1-0.1-0.2-0.3-0.3-0.4c-0.8-1.3-1.1-2.9-1-4.4
			c0.2-1.5,0.9-2.8,2-3.8c-0.1-1.7,0.2-3.5,0.8-5.1c0.7-1.5,1.7-2.8,3-3.9c-1-1.5-1.3-3.3-0.7-5c0.5-1.4,0.9-2.1,1.9-2.4l0,0
			c0.4-0.1,0.8-0.3,1.1-0.6c1.3-1.5,3.2-2.4,5.2-2.5c0.1-0.2,0.2-0.4,0.3-0.6c0.4-1.1,1.2-2.1,2.3-2.6c0.6-0.2,1.4-0.2,1.9,0.2
			c0.3,0.2,0.7,0.4,1.7,2.6c0.4-0.1,0.8-0.1,1.2,0c0.4,0.1,0.8,0.4,1,0.8c1.1,2.1,1.2,5.7,0.8,8.1c-0.4,2.1-1.3,4.1-2.5,5.8
			c1.1,1.2,2,2.5,2.5,4.1c0.5,1.5,0.7,3,0.6,4.5c0.5-0.2,0.9-0.5,1.4-0.7c1.7-1.2,3.7-1.9,5.7-2.1c1.5-0.1,2.8,1,3,2.5
			C48.5,73.6,47.6,74.9,46.2,75.2z"/>
	</g>
</g>
</svg>
