<svg width="16" height="16" viewBox="0 0 16 16" fill="none" xmlns="http://www.w3.org/2000/svg">
<path d="M11.4542 3.5643C10.4818 0.892608 7.51703 -0.489864 4.84534 0.482552C2.17364 1.45497 0.79117 4.41969 1.76359 7.09138C2.2093 8.31598 2.8802 9.4506 3.52898 10.5478C4.15603 11.6083 4.80441 12.7049 5.22039 13.8478C5.84509 15.5641 7.73653 16.4571 9.4367 15.8383C11.1369 15.2195 12.0118 13.3196 11.3871 11.6033C11.3075 11.3845 11.1984 11.1558 11.0878 10.9758C10.4905 10.0037 10.8192 8.49959 11.282 7.50694C11.8641 6.25872 11.9252 4.85852 11.4542 3.5643ZM10.289 11.4665C10.3669 11.5933 10.448 11.7643 10.5062 11.9239C10.9541 13.1545 10.3305 14.5153 9.11605 14.9573C7.90165 15.3993 6.54925 14.7577 6.10135 13.5272C5.65563 12.3026 4.98473 11.1679 4.33595 10.0707C3.70891 9.01023 3.06053 7.91364 2.64455 6.77074C1.84894 4.58481 2.98005 2.15913 5.16598 1.36351C7.35191 0.5679 9.77759 1.69901 10.5732 3.88494C10.9586 4.94386 10.9086 6.08946 10.4324 7.11074C9.84426 8.37202 9.49772 10.1786 10.289 11.4665Z" fill="#163C9B"/>
<path d="M6.07224 2.28049C4.01038 2.63421 2.83061 4.74361 3.52604 6.6456C3.91328 7.70467 4.50916 8.70675 5.14144 9.77002C5.34447 10.1114 5.5544 10.4644 5.7565 10.8187C6.16551 11.5354 7.01538 11.853 7.77736 11.5739C8.51811 11.3025 8.9683 10.5395 8.84782 9.75955C8.79946 9.62391 8.80969 8.00989 7.2186 7.07013C6.41657 6.59642 5.46377 6.48718 4.58024 6.76259C4.51747 6.61629 4.45904 6.47004 4.40545 6.32347C3.92053 4.99722 4.71484 3.46407 6.23029 3.20404C8.07136 2.8882 9.51755 4.79985 8.72754 6.50457L9.57706 6.89862C10.6741 4.53118 8.68001 1.8331 6.07224 2.28049ZM6.74249 7.87708C7.90932 8.56625 7.87019 9.75114 7.92237 9.90284C7.97489 10.2429 7.7786 10.5757 7.45563 10.694C7.12406 10.8154 6.7515 10.6724 6.56977 10.3539C6.36347 9.99231 6.15132 9.63565 5.9448 9.28834C5.60596 8.71854 5.27763 8.1664 4.99149 7.62007C5.58401 7.47297 6.2098 7.56247 6.74249 7.87708Z" fill="#26E2E2"/>
</svg>
