<svg width="18" height="18" viewBox="0 0 18 18" fill="none" xmlns="http://www.w3.org/2000/svg">
<path d="M16.0348 9.00352H15.8906C15.0926 6.03281 12.4312 3.82148 9.24258 3.71602C8.62031 3.53672 8.18789 2.91797 8.18789 2.19023C8.18789 1.56445 8.69766 1.05469 9.32344 1.05469C9.76641 1.05469 10.125 1.4168 10.125 1.85977C10.125 2.15156 10.3605 2.38711 10.6523 2.38711C10.9441 2.38711 11.1797 2.15156 11.1797 1.85977C11.1797 0.836719 10.3465 0 9.32344 0C8.11758 0 7.1332 0.984375 7.1332 2.19023C7.1332 2.80898 7.33008 3.38203 7.67109 3.83555C4.97813 4.34531 2.81602 6.37734 2.11289 9.00352H1.96875C0.882422 9.00352 0 9.88594 0 10.9688C0 12.0516 0.882422 12.934 1.96523 12.934H2.17266C3.06562 15.8625 5.78672 18 9 18C12.2133 18 14.9344 15.8625 15.8238 12.934H16.0312C17.1141 12.934 17.9965 12.0516 17.9965 10.9688C17.9965 9.88594 17.1176 9.00352 16.0348 9.00352ZM1.05469 10.9688C1.05469 10.4836 1.43438 10.0898 1.9125 10.0617C1.88438 10.3219 1.8668 10.5891 1.8668 10.8562C1.8668 11.2043 1.89141 11.5453 1.94063 11.8793C1.44844 11.8652 1.05469 11.4609 1.05469 10.9688ZM9 16.9453C5.64961 16.9453 2.92148 14.2137 2.92148 10.8562C2.92148 7.49883 5.64961 4.76719 9 4.76719C12.3504 4.76719 15.0785 7.49883 15.0785 10.8562C15.0785 14.2137 12.3504 16.9453 9 16.9453ZM16.0594 11.8793C16.1086 11.5453 16.1332 11.2043 16.1332 10.8562C16.1332 10.5891 16.1191 10.3219 16.0875 10.0617C16.5656 10.0898 16.9453 10.4836 16.9453 10.9688C16.9453 11.4609 16.5516 11.8652 16.0594 11.8793Z" fill="#163C9B"/>
<path d="M7.67458 10.8492C7.67458 10.3816 7.49176 9.9668 7.15426 9.68203C6.86598 9.43594 6.48278 9.30234 6.07848 9.29883C6.07497 9.29883 6.07497 9.29883 6.07497 9.29883C5.67067 9.29883 5.29098 9.43242 5.0027 9.675C4.6652 9.95977 4.47887 10.3711 4.47536 10.8422C4.47536 11.134 4.7109 11.3695 5.0027 11.3695C5.2945 11.3695 5.53004 11.134 5.53004 10.8422C5.53004 10.7613 5.55817 10.35 6.07497 10.35H6.07848C6.59879 10.35 6.6234 10.7613 6.6234 10.8422C6.6234 11.134 6.85895 11.3695 7.15075 11.3695C7.43551 11.3766 7.67458 11.141 7.67458 10.8492Z" fill="#26E2E2"/>
<path d="M12.7864 9.52383C12.2661 9.22149 11.5946 9.22149 11.0743 9.52031C10.5997 9.79102 10.329 10.2727 10.3254 10.8422C10.3254 11.134 10.561 11.3695 10.8528 11.3695C11.1446 11.3695 11.3801 11.134 11.3801 10.8422C11.3801 10.6523 11.4504 10.5152 11.5981 10.4344C11.7879 10.3254 12.0657 10.3254 12.2555 10.4379C12.3997 10.5223 12.4735 10.6559 12.47 10.8492C12.47 11.141 12.7055 11.3766 12.9973 11.3766C13.2891 11.3766 13.5247 11.141 13.5247 10.8492C13.5282 10.2832 13.2575 9.79805 12.7864 9.52383Z" fill="#26E2E2"/>
<path d="M10.1602 13.7074C9.86836 13.7074 9.63281 13.9429 9.63281 14.2347C9.63281 14.5828 9.34805 14.8676 9 14.8676C8.65195 14.8676 8.36719 14.5828 8.36719 14.2347C8.36719 13.9429 8.13164 13.7074 7.83984 13.7074C7.54805 13.7074 7.3125 13.9429 7.3125 14.2347C7.3125 15.1664 8.06836 15.9222 9 15.9222C9.93164 15.9222 10.6875 15.1664 10.6875 14.2347C10.6875 13.9465 10.452 13.7074 10.1602 13.7074Z" fill="#26E2E2"/>
</svg>
