<svg width="34" height="29" viewBox="0 0 34 29" fill="none" xmlns="http://www.w3.org/2000/svg">
<path d="M31.3039 2.83952C29.5441 1.00593 27.127 0 24.5039 0C22.5383 0 20.7453 0.592097 19.1648 1.76992C18.368 2.36202 17.6441 3.08782 17.0066 3.93458C16.3691 3.08782 15.6453 2.36202 14.8484 1.76992C13.2547 0.592097 11.4617 0 9.49609 0C6.87305 0 4.45586 1.00593 2.69609 2.83952C0.95625 4.64764 0 7.11789 0 9.79824C0 12.555 1.06914 15.0762 3.37344 17.7374C5.43203 20.1186 8.38711 22.5379 11.8137 25.3328C12.9824 26.2878 14.3105 27.3701 15.6852 28.5289C16.0504 28.8345 16.5152 29 17 29C17.4848 29 17.9496 28.8345 18.3148 28.5289C19.6895 27.3765 21.0176 26.2878 22.1863 25.3328C25.6129 22.5379 28.568 20.1186 30.6266 17.7374C32.9242 15.0762 34 12.555 34 9.79824C34 7.11789 33.0438 4.64764 31.3039 2.83952Z" fill="#26E2E2"/>
</svg>
