<svg width="162" height="155" viewBox="0 0 162 155" fill="none" xmlns="http://www.w3.org/2000/svg">
<g clip-path="url(#clip0)">
<path d="M52.253 70.6127C52.253 70.6127 44.2535 71.3439 37.0027 69.9605C29.7519 68.5574 23.8804 66.0475 21.2992 66.3637C18.7181 66.6799 16.334 70.7115 21.8903 73.6957C27.4466 76.6799 40.0173 77.925 53.8096 73.0435C53.6519 71.7985 52.253 70.6127 52.253 70.6127Z" fill="#F2B186"/>
<path d="M52.5879 70.336C52.5879 70.336 54.3809 68.9131 57.0212 67.9842C59.6811 67.0554 60.9421 67.4901 60.6268 69.0712C60.3116 70.6522 57.5728 73.1028 53.1396 73.0633C48.7261 73.0237 52.5879 70.336 52.5879 70.336Z" fill="#F2B186"/>
<path d="M42.2043 70.0593C42.2043 70.0593 34.5792 68.9921 29.0623 67.4308C23.5257 65.8696 21.1416 64.7826 18.7575 67.3715C16.3734 69.9407 13.4967 72.4901 18.9545 74.4664C24.4123 76.4427 38.579 77.3122 42.1846 76.4229C42.6378 74.3676 42.2043 70.0593 42.2043 70.0593Z" fill="#16D6D6"/>
<path d="M92.9992 57.3715C92.9992 57.3715 91.1668 60.079 87.3838 70.1185C83.6008 80.158 66.0255 100.632 66.0255 100.632L71.4242 109.802C71.4242 109.802 93.1766 95.573 96.1518 83.0632C99.1466 70.5138 92.9992 57.3715 92.9992 57.3715Z" fill="#225AE6"/>
<path d="M120.643 44.17C120.643 44.17 128.958 42.4704 133.962 43.3992C138.967 44.3281 130.554 95.3953 130.554 95.3953C130.554 95.3953 113.826 104.545 113.845 104.545C113.865 104.545 100.112 99.9605 100.112 99.9605C100.112 99.9605 89.2557 65.6126 92.0732 59.0909C94.8908 52.5692 102.89 50.4941 102.89 50.4941L108.939 50.8103L120.643 44.17Z" fill="#225AE6"/>
<path d="M127.401 58.083C127.401 58.083 127.618 73.0632 124.229 81.996C120.84 90.9288 100.132 99.9605 100.132 99.9605C100.132 99.9605 102.299 107.115 104.782 109.289C107.264 111.462 134.888 105.593 134.888 105.593L145.055 77.4111L127.401 58.083Z" fill="#0F2869"/>
<path d="M72.9414 124.209C72.9414 124.209 97.6099 114.407 104.762 109.308C116.84 107.727 141.43 103.32 141.43 103.32L153.725 135.198C153.725 135.198 143.578 135.118 129.352 130.968C118.141 129.921 98.7527 130.968 98.7527 130.968L72.9414 124.209Z" fill="#FF8E00"/>
<path d="M89.3542 25.9288C92.29 36.1067 100.309 44.4466 106.732 42.5889C113.156 40.7312 115.52 29.3873 112.604 19.1897C109.668 9.01184 102.555 3.83397 96.1321 5.69168C89.7088 7.56915 86.4381 15.751 89.3542 25.9288Z" fill="#FFCAA6"/>
<path d="M102.91 12.4703C102.91 12.4703 104.604 12.9446 106.693 16.245C108.782 19.5454 104.821 27.3913 109.905 29.3873C112.525 30.415 116.013 29.4071 115.579 24.9407C115.146 20.4545 117.549 16.4229 116.505 12.7272C115.461 9.03159 113.471 5.17783 109.176 3.65609C104.88 2.11459 101.215 -1.52177 95.1666 0.750954C89.1374 3.04344 89.1177 7.72724 86.2804 9.52566C83.4432 11.3438 82.5565 15.9288 84.4283 19.664C86.3001 23.3992 88.6054 22.6679 88.6054 22.6679C88.6054 22.6679 88.2902 17.7272 89.827 16.5217C91.3639 15.2766 94.1617 21.0276 102.91 12.4703Z" fill="#51495B"/>
<path d="M104.447 42.1343L106.2 49.1501L102.89 50.5138C102.89 50.5138 103.107 59.8221 111.382 53.9723C119.658 48.1225 120.623 44.1699 120.623 44.1699L117.175 45.3161L112.84 33.7549L104.447 42.1343Z" fill="#FFCAA6"/>
<path d="M104.644 42.8656C104.644 42.8656 107.737 42.2135 109.846 38.7352C111.934 35.2569 112.072 29.7431 112.072 29.7431L113.806 29.2688C113.806 29.2688 113.235 34.7629 114.023 36.9763C114.83 39.1897 115.993 42.4111 115.993 42.4111L104.959 44.0712L104.644 42.8656Z" fill="#F2B186"/>
<path d="M140.366 108.044C140.366 108.044 138.967 131.937 150.434 134.763C161.921 137.569 164.955 126.779 158.178 103.992C151.38 81.2056 141.075 71.3439 130.77 82.6087C122.436 91.7194 112.742 144.387 112.742 144.387H121.175C121.175 144.387 137.095 123.597 140.366 108.044Z" fill="#FFC001"/>
<path d="M129.608 141.917C129.608 141.917 88.7828 143.696 75.4437 138.794C62.1243 133.893 65.5133 119.862 88.4872 123.202C111.461 126.541 133.568 135.237 133.568 135.237L129.608 141.917Z" fill="#FFC001"/>
<path d="M128.682 133.439L122.85 142.115L129.608 141.917L133.588 135.237L128.682 133.439Z" fill="#FF8E00"/>
<path d="M115.796 129.308L113.156 142.213L100.624 142.016C100.624 142.016 110.102 139.545 115.796 129.308Z" fill="#FF8E00"/>
<path d="M113.333 144.387C113.333 144.387 111.698 146.541 108.21 148.597C104.723 150.652 98.9891 153.814 101.669 154.763C104.368 155.711 109.511 153.814 113.786 152.115C118.062 150.415 119.815 148.478 120.17 146.957C120.525 145.435 120.643 144.407 120.643 144.407H113.333V144.387Z" fill="#51495B"/>
<path d="M132.898 136.383C132.898 136.383 140.977 136.443 145.646 138.202C150.296 139.961 152.937 141.818 146.691 143.3C140.464 144.802 130.554 140.336 130.554 140.336L132.898 136.383Z" fill="#51495B"/>
<path d="M38.1651 130.494H59.3264H80.468C83.3644 130.494 85.7288 132.846 85.7288 135.771C85.7288 138.696 83.3841 141.047 80.468 141.047H38.1848C35.2884 141.047 32.9241 138.696 32.9241 135.771C32.9241 132.866 35.2687 130.494 38.1651 130.494Z" fill="#FF8E00"/>
<path d="M40.9827 119.941H59.3067H77.6307C80.1528 119.941 82.1822 122.292 82.1822 125.217C82.1822 128.122 80.1331 130.494 77.6307 130.494H40.963C38.441 130.494 36.4115 128.142 36.4115 125.217C36.4115 122.292 38.4804 119.941 40.9827 119.941Z" fill="#16D6D6"/>
<path d="M43.2683 109.407H59.3264H75.3846C77.5913 109.407 79.3843 111.759 79.3843 114.684C79.3843 117.589 77.5913 119.96 75.3846 119.96H43.2683C41.0616 119.96 39.2685 117.609 39.2685 114.684C39.2685 111.759 41.0616 109.407 43.2683 109.407Z" fill="#34EEEE"/>
<path d="M44.8839 98.8538H59.3264H73.7689C75.7589 98.8538 77.3549 101.206 77.3549 104.13C77.3549 107.055 75.7392 109.407 73.7689 109.407H44.9036C42.9136 109.407 41.3176 107.055 41.3176 104.13C41.3176 101.206 42.9136 98.8538 44.8839 98.8538Z" fill="#FFC001"/>
<path d="M46.4602 88.3202H59.3264H72.1927C73.966 88.3202 75.3846 90.672 75.3846 93.5969C75.3846 96.502 73.9462 98.8736 72.1927 98.8736H46.4602C44.6869 98.8736 43.2683 96.5218 43.2683 93.5969C43.2486 90.672 44.6869 88.3202 46.4602 88.3202Z" fill="#225AE6"/>
<path d="M49.061 77.7668H59.3264H69.5918C71.0105 77.7668 72.1533 80.1186 72.1533 83.0435C72.1533 85.9486 71.0105 88.3202 69.5918 88.3202H49.061C47.6424 88.3202 46.4996 85.9684 46.4996 83.0435C46.4996 80.1186 47.6424 77.7668 49.061 77.7668Z" fill="#FA9837"/>
<path d="M55.6025 67.2135H59.3264H63.0503C63.5626 67.2135 63.9764 69.5653 63.9764 72.4902C63.9764 75.3953 63.5626 77.7669 63.0503 77.7669H55.6025C55.0902 77.7669 54.6765 75.4151 54.6765 72.4902C54.6765 69.585 55.0902 67.2135 55.6025 67.2135Z" fill="#225AE6"/>
<path d="M129.391 110.237C129.135 110.158 121.372 108.024 117.944 111.166C114.515 114.308 119.027 116.482 125.155 116.383C131.283 116.285 135.696 111.957 129.391 110.237Z" fill="#FFCAA6"/>
<path d="M133.962 43.3794C133.962 43.3794 138.888 44.3478 143.479 50.1778C148.07 56.0079 164.207 81.6205 161.744 89.9011C159.301 98.162 139.794 109.901 131.086 114.684C129.825 111.739 128.209 108.478 128.209 108.478C128.209 108.478 147.262 91.2648 147.814 88.9525C148.346 86.6403 127.401 58.083 127.401 58.083C127.401 58.083 127.027 50.415 133.962 43.3794Z" fill="#225AE6"/>
<path d="M30.9932 97.3913C30.9932 97.3913 33.4167 116.522 27.2693 138.202C24.5897 138.419 22.0085 138.202 22.0085 138.202C22.0085 138.202 21.4371 114.585 19.7623 115.415C18.0876 116.245 11.3097 138.202 11.3097 138.202H5.45778C5.45778 138.202 5.77304 129.644 7.21137 125.376C7.64484 116.581 6.60057 107.885 7.369 99.1304C8.13742 90.3755 30.9932 97.3913 30.9932 97.3913Z" fill="#FA9837"/>
<path d="M6.54147 53.3004C10.1472 60.2569 18.2649 64.5652 23.9788 61.581C29.6928 58.5968 30.8553 49.4664 27.2693 42.5098C23.6636 35.5533 16.6689 33.4189 10.955 36.3834C5.22136 39.3873 2.93577 46.3438 6.54147 53.3004Z" fill="#FFCAA6"/>
<path d="M13.5558 45.3953C12.7085 46.0079 12.0386 48.0435 12.9253 49.9012C13.7922 51.7589 15.7626 52.8261 14.5213 55.0395C13.2799 57.253 16.3537 58.9723 14.206 61.0474C12.0781 63.1225 7.29016 63.5178 5.39865 60.2767C3.50714 57.0158 4.63022 53.3399 3.44802 51.3636C2.24612 49.3874 -2.46295 45.336 1.71414 39.6838C5.89123 34.0119 9.47722 35.1976 11.1717 34.0909C12.8465 32.9842 15.9202 30.5138 18.5998 31.2846C21.2992 32.0553 21.4962 33.8142 23.2695 34.2885C25.0428 34.7826 28.9637 36.4229 29.6533 39.4862C30.343 42.5494 28.7864 44.9802 25.7915 44.9209C22.7769 44.8617 22.2646 44.2885 20.7869 45.3755C19.3091 46.4427 18.0481 47.253 16.1369 46.8577C14.206 46.4625 13.5558 45.3953 13.5558 45.3953Z" fill="#51495B"/>
<path d="M13.7135 67.5889C13.7135 67.5889 10.2063 73.3794 8.3936 82.2727C6.5809 91.166 6.26564 100.85 6.26564 100.85C6.26564 100.85 12.8859 103.063 22.0085 102.194C31.1114 101.324 32.6877 99.1699 32.6877 99.1699C32.6877 99.1699 29.3381 83.2411 27.8013 77.1146C26.2447 70.9881 24.767 67.5296 21.3386 66.2253C17.9103 64.9012 15.8808 65.3162 13.7135 67.5889Z" fill="#34EEEE"/>
<path d="M22.8951 65.9091C22.8951 65.9091 21.4371 64.1503 21.1218 61.8775C20.7869 59.6245 15.664 60.9289 15.664 60.9289L15.9793 65.9882C15.9793 65.9882 20.7869 68.2412 23.1513 68.1226C25.5157 68.004 23.8409 66.3242 22.8951 65.9091Z" fill="#FFCAA6"/>
<path d="M21.2795 62.4506C21.2795 62.4506 18.0285 62.8261 15.7232 61.7194C15.7429 62.0553 15.7823 62.5889 15.7823 62.5889C15.7823 62.5889 16.8266 63.9328 19.1122 64.5652C21.4174 65.1976 22.2056 64.8617 22.2056 64.8617L21.2795 62.4506Z" fill="#F2B186"/>
<path d="M22.5208 138.221C22.5208 138.221 22.3041 141.601 23.9788 141.601C25.6536 141.601 32.136 141.601 32.136 141.601C32.136 141.601 33.4758 140.79 31.2493 139.921C29.0229 139.032 26.5008 138.241 26.5008 138.241L22.5208 138.221Z" fill="#51495B"/>
<path d="M6.28532 138.221C6.28532 138.221 6.06857 141.601 7.74335 141.601C9.41812 141.601 15.9005 141.601 15.9005 141.601C15.9005 141.601 17.2403 140.79 15.0138 139.921C12.7874 139.032 10.2654 138.241 10.2654 138.241L6.28532 138.221Z" fill="#51495B"/>
<path d="M46.2829 75.7904C46.2829 75.7904 38.2637 75.5335 31.2296 73.2608C24.1956 70.9881 18.6787 67.7667 16.0779 67.7667C13.477 67.7667 10.62 71.4821 15.7626 75.1185C20.9051 78.7549 33.2394 81.5414 47.5045 78.3794C47.5242 77.1343 46.2829 75.7904 46.2829 75.7904Z" fill="#FFCAA6"/>
<path d="M46.6376 75.5534C46.6376 75.5534 48.5882 74.3676 51.3269 73.755C54.0657 73.1423 55.2676 73.7352 54.775 75.2767C54.2627 76.8182 51.2481 78.8933 46.874 78.3202C42.4999 77.7471 46.6376 75.5534 46.6376 75.5534Z" fill="#FFCAA6"/>
<path d="M36.3722 74.0119C36.3722 74.0119 28.9441 72.0158 23.6439 69.8024C18.3437 67.5889 16.0976 66.2055 13.4179 68.4783C10.7383 70.751 12.5116 74.6443 17.6935 77.2727C22.8755 79.9012 31.8995 80.7707 35.5644 80.336C36.2934 78.3399 36.3722 74.0119 36.3722 74.0119Z" fill="#16D6D6"/>
</g>
<defs>
<clipPath id="clip0">
<rect width="162" height="155" transform="matrix(-1 0 0 1 162 0)" fill="white"/>
</clipPath>
</defs>
</svg>
