<svg width="187" height="163" viewBox="0 0 187 163" fill="none" xmlns="http://www.w3.org/2000/svg">
<g clip-path="url(#clip0)">
<path d="M158.845 154.37H161.108C161.108 154.37 163.173 150.253 166.394 150.006C169.591 149.735 172.099 154.075 176.082 155.653C180.066 157.206 189.336 161.274 186.459 161.274C183.582 161.274 157.813 160.239 157.813 160.239L158.845 154.37Z" fill="#FFCAA6"/>
<path d="M135.633 117.682C135.633 117.682 87.2913 135.188 81.0948 140.07C74.923 144.927 75.4885 158.118 85.2504 160.904C95.0123 163.69 160.1 160.904 160.1 160.904L159.288 153.507L145.322 149.217C145.322 149.217 155.01 146.974 159.411 139.478C163.788 131.983 162.534 121.677 162.534 121.677L135.633 117.682Z" fill="#FFCD00"/>
<path d="M124.691 47.0188C124.691 47.0188 126.83 48.7447 128.38 51.4815C129.929 54.1936 129.191 57.6701 129.191 57.6701L144.584 50.2487L134.232 37.0578L124.691 47.0188Z" fill="#FFCAA6"/>
<path d="M146.895 51.9746C146.895 51.9746 156.657 69.3323 160.813 89.131C164.968 108.93 164.034 129.074 164.034 129.074C164.034 129.074 157.567 130.923 144.756 128.383C131.945 125.844 124.667 120.814 124.667 120.814C124.667 120.814 133.101 114.428 133.445 103.579C133.789 92.7307 123.757 93.3225 121.667 84.7422C119.601 76.1867 122.478 70.9596 126.388 61.0233C130.347 51.0623 141.043 45.8599 146.895 51.9746Z" fill="#80CFD4"/>
<path d="M109.495 21.1547C107.676 34.0005 112.495 47.3393 120.609 48.4981C128.699 49.6323 137.01 38.1673 138.83 25.2969C140.65 12.4512 135.265 3.10664 127.15 1.97246C119.036 0.838294 111.29 8.30903 109.495 21.1547Z" fill="#FFCAA6"/>
<path d="M27.048 120.469C27.048 120.469 23.3104 128.013 25.4005 135.04C27.5152 142.043 43.6948 147.491 42.785 151.091C41.8506 154.716 22.0564 154.568 22.0564 154.568L20.9499 162.038C20.9499 162.038 38.4327 163.518 53.1616 162.852C67.9151 162.162 62.8743 146.604 55.8172 139.133C48.7356 131.662 44.6538 126.46 44.6538 126.46L27.048 120.469Z" fill="#6DC4C6"/>
<path d="M21.8843 155.628C21.8843 155.628 20.2122 153.951 18.5648 153.68C16.9173 153.409 16.6714 155.11 16.0075 156.836C15.3682 158.562 11.4093 159.277 10.4995 160.115C9.56515 160.954 10.5241 161.841 13.4994 161.841C16.4747 161.841 20.9745 161.521 20.9745 161.521L21.8843 155.628Z" fill="#D4E3FB"/>
<path d="M18.3435 118.422C18.3435 118.422 13.1306 127.989 15.2452 135.016C17.3599 142.018 33.5395 147.467 32.6297 151.067C31.6953 154.691 11.9011 154.543 11.9011 154.543L10.7946 162.014C10.7946 162.014 23.6793 163.493 38.4327 162.827C53.1862 162.137 52.7436 146.579 45.6619 139.108C38.5803 131.638 34.4985 126.435 34.4985 126.435L18.3435 118.422Z" fill="#80CFD4"/>
<path d="M18.2451 71.9212C23.6301 80.5015 34.5723 85.2107 41.6539 80.748C48.711 76.2853 49.252 64.3765 43.8424 55.7716C38.4573 47.1914 29.1873 45.1696 22.1302 49.6323C15.0485 54.0703 12.8601 63.3163 18.2451 71.9212Z" fill="#FFCAA6"/>
<path d="M26.4579 60.9493C25.4252 61.8369 24.7858 64.5244 26.1136 66.8421C27.4415 69.1351 30.0725 70.3185 28.7201 73.3019C27.3677 76.2853 31.4987 78.1838 28.966 81.0932C26.4333 83.9779 20.286 85.0381 17.5075 81.0439C14.7289 77.0496 15.7862 72.1924 14.0158 69.7515C12.27 67.3352 5.75389 62.6013 10.5242 54.8593C15.319 47.0927 20.0647 48.2515 22.1302 46.6243C24.1957 45.0216 27.8841 41.4958 31.4249 42.1862C34.9903 42.9012 35.4329 45.1202 37.7689 45.564C40.1048 46.0079 45.3423 47.7091 46.5718 51.6047C47.7766 55.4757 46.0554 58.8043 42.1457 59.0508C38.2607 59.2974 37.523 58.6317 35.728 60.1603C33.933 61.7136 32.4085 62.8725 29.9004 62.5766C27.4169 62.2561 26.4579 60.9493 26.4579 60.9493Z" fill="#51495B"/>
<path d="M26.4333 88.416C26.4333 88.416 21.0237 95.3196 17.3353 106.489C13.6224 117.658 13.3765 128.013 13.3765 128.013C13.3765 128.013 16.4993 131.12 28.3758 131.416C40.2277 131.712 49.7437 127.52 49.7437 127.52C49.7437 127.52 44.1128 110.976 43.0555 102.84C41.9982 94.7032 40.6212 90.0433 36.4164 87.8242C32.2363 85.6299 29.5807 85.8518 26.4333 88.416Z" fill="#FA9837"/>
<path d="M11.729 155.628C11.729 155.628 10.057 153.951 8.40948 153.68C6.76201 153.409 6.51612 155.11 5.85222 156.836C5.2129 158.562 1.25406 159.277 0.344263 160.115C-0.590123 160.954 0.368852 161.841 3.34413 161.841C6.31941 161.841 10.8192 161.521 10.8192 161.521L11.729 155.628Z" fill="#FFCAA6"/>
<path d="M37.941 88.8598C37.941 88.8598 36.6869 86.1723 36.982 83.2382C37.3017 80.3042 30.4413 80.3042 30.4413 80.3042L29.2365 86.7394C29.2365 86.7394 34.5477 91.1035 37.5722 91.7199C40.572 92.3116 38.9737 89.6734 37.941 88.8598Z" fill="#FFCAA6"/>
<path d="M37.0066 84.0026C37.0066 84.0026 32.8018 83.4355 30.2446 81.3151C30.1708 81.7589 30.0479 82.4246 30.0479 82.4246C30.0479 82.4246 30.9085 84.4464 33.6133 85.975C36.2935 87.5037 37.4 87.3311 37.4 87.3311L37.0066 84.0026Z" fill="#F2B186"/>
<path d="M132.191 58.4098C132.191 58.4098 109.52 87.7996 105.708 86.4188C101.897 85.0381 85.2749 61.0233 85.2749 61.0233L81.1194 62.5766C81.1194 62.5766 95.3073 104.763 104.848 103.555C114.364 102.347 143.625 75.0771 146.403 66.7435C149.157 58.4098 139.986 52.1472 132.191 58.4098Z" fill="#FFCAA6"/>
<path d="M81.1194 62.5766C81.1194 62.5766 79.9637 60.3083 79.6686 57.6454C79.3736 54.9826 78.7343 42.6547 78.7343 40.7562C78.7343 38.8577 81.6849 42.0876 83.357 48.4488C85.0291 54.81 85.2504 60.9986 85.2504 60.9986C85.2504 60.9986 84.2176 63.7354 81.1194 62.5766Z" fill="#FFCAA6"/>
<path d="M125.478 47.7338C125.478 47.7338 128.773 46.353 130.962 43.493C133.15 40.6329 134.822 37.8221 134.822 37.8221L139.174 43.3697L127.15 49.6323L125.478 47.7338Z" fill="#F2B186"/>
<path d="M145.346 149.217C145.346 149.217 108.29 150.845 100.446 150.154C92.6025 149.464 88.1027 147.491 88.1027 147.491L92.4796 151.535L90.2912 155.011C90.2912 155.011 103.791 153.853 121.568 155.011C139.346 156.17 150.657 161.274 150.657 161.274L160.124 160.904L159.313 153.507L145.346 149.217Z" fill="#FF9A01"/>
<path d="M122.945 19.1083C122.945 19.1083 124.593 34.3456 129.634 42.7286C134.674 51.1116 146.133 53.5772 151.911 65.5353C157.69 77.4934 157.272 82.0794 160.247 86.6654C163.222 91.2267 174.878 89.4269 173.624 79.7371C172.345 70.0473 170.968 69.8254 166.247 60.6781C161.526 51.5308 164.624 41.9396 161.157 32.3238C157.69 22.7081 150.879 19.3549 145.912 11.8348C140.945 4.31477 137.256 -0.887618 124.667 0.147929C112.077 1.18348 106.323 9.76372 108.512 15.6565C110.725 21.5492 122.945 19.1083 122.945 19.1083Z" fill="#51495B"/>
<path d="M72.5132 74.2142V60.7767C72.5132 60.7767 72.2182 59.8398 71.1362 61.6397C70.0297 63.4396 69.415 66.9161 69.6363 68.7652C69.8576 70.6144 70.5707 74.2142 70.5707 74.2142H72.5132Z" fill="#FFCAA6"/>
<path d="M43.1539 103.579C43.1539 103.579 30.8593 103.16 26.5071 98.5742C39.9819 99.0427 42.6375 99.9303 42.6375 99.9303L43.1539 103.579Z" fill="#ED8629"/>
<path d="M30.5888 89.5255C31.1298 89.5008 44.3587 89.5255 53.7025 86.3202C63.0464 83.115 70.0051 71.1569 70.0051 71.1569L72.5132 74.1895C72.5132 74.1895 65.3578 90.9802 54.391 95.8374C43.4243 100.695 35.2361 101.853 29.2364 100.226C23.2367 98.6235 24.5645 89.8214 30.5888 89.5255Z" fill="#FFCAA6"/>
</g>
<defs>
<clipPath id="clip0">
<rect width="187" height="163" fill="white"/>
</clipPath>
</defs>
</svg>
