<svg width="207" height="128" viewBox="0 0 207 128" fill="none" xmlns="http://www.w3.org/2000/svg">
<path d="M152.808 75.396C152.808 75.396 160.172 78.1544 167.37 78.7207C174.569 79.287 180.76 78.4467 183.104 79.4149C185.449 80.3831 186.658 84.7674 180.65 86.1375C174.642 87.5076 162.443 85.425 150.702 77.2776C151.197 76.145 152.808 75.396 152.808 75.396Z" fill="#9C5C2F"/>
<path d="M152.57 75.0489C152.57 75.0489 151.251 73.2586 148.98 71.6876C146.727 70.1165 145.408 70.2079 145.299 71.7789C145.189 73.35 147.149 76.3459 151.325 77.4603C155.519 78.5746 152.57 75.0489 152.57 75.0489Z" fill="#FFCAA6"/>
<path d="M162.425 77.4785C162.425 77.4785 169.898 78.4467 175.503 78.4102C181.126 78.3736 183.654 77.9717 185.247 81.0042C186.841 84.0366 183.782 86.8864 178.122 87.3248C172.462 87.7633 163.982 85.2058 160.813 83.4521C160.904 81.4061 162.425 77.4785 162.425 77.4785Z" fill="#FF8E00"/>
<path d="M51.1693 54.7168C51.1693 54.7168 66.482 72.6375 71.5191 71.779C76.5562 70.9386 83.0952 55.685 83.0952 55.685H88.8283C88.8283 55.685 84.4873 83.1233 71.1711 83.1781C57.8549 83.2329 41.1318 68.1254 42.3956 67.212C43.6412 66.3169 51.1693 54.7168 51.1693 54.7168Z" fill="#9C5C2F"/>
<path d="M43.3481 47.7021C43.3481 47.7021 46.8466 49.6933 49.9787 52.9267C53.1108 56.1601 56.8841 60.3983 56.8841 60.3983L44.557 71.2676L43.3481 47.7021Z" fill="#E0D5D8"/>
<path d="M35.2521 99.8017C35.2521 99.8017 58.789 78.3919 72.0686 78.4102C84.4873 78.4284 101.485 115.183 101.485 115.183L95.6604 118.088C95.6604 118.088 73.0577 95.3261 70.4018 95.4905C67.7459 95.655 55.7118 110.762 44.7218 113.758C33.7318 116.754 27.4126 105.921 27.4126 105.921L35.2521 99.8017Z" fill="#43F9F9"/>
<path d="M38.6407 97.4453C38.6407 97.4453 35.71 101.921 43.5679 104.223C51.4257 106.524 66.5003 98.2674 66.5003 98.2674C66.5003 98.2674 56.298 109.703 46.5169 114.288C36.7358 118.873 32.5596 126.984 32.5596 126.984H15.9464C15.9464 126.984 -0.868323 125.687 1.16483 111.676C3.19797 97.6828 38.6407 97.4453 38.6407 97.4453Z" fill="#0FD1D1"/>
<path d="M39.0437 45.7656C39.0437 45.7656 45.9491 47.3001 46.9015 52.8901C47.8723 58.4617 41.9927 90.3207 39.0437 96.6596C36.0947 103.017 23.1815 109.374 11.1657 109.922C-0.831681 110.47 1.25642 111.183 6.00043 84.6577C9.62713 64.3622 1.64107 50.3691 26.0388 45.4551C35.5452 43.5552 39.0437 45.7656 39.0437 45.7656Z" fill="#EFE6E8"/>
<path d="M46.0772 19.8985C46.2238 29.3246 41.5347 38.5133 35.5635 38.6047C29.5923 38.696 24.5918 29.6717 24.4453 20.2455C24.2987 10.8194 29.0244 4.5718 34.9957 4.48046C40.9669 4.37085 45.9124 10.4723 46.0772 19.8985Z" fill="#C1733D"/>
<path d="M30.966 11.9885C30.966 11.9885 29.6472 12.8288 28.7131 16.19C27.7789 19.533 33.219 25.1778 29.3908 28.2102C27.4126 29.763 24.1705 29.8178 23.3829 25.9085C22.5953 21.9809 19.4815 19.1859 19.3899 15.7699C19.2983 12.3538 20.031 8.57239 23.2913 6.14278C26.5517 3.71317 28.7497 -0.342263 34.5011 0.0230918C40.2526 0.388446 41.4981 4.37081 44.3921 5.17459C47.2862 5.97837 49.2461 9.65018 48.6233 13.3037C48.0005 16.9573 45.8392 16.939 45.8392 16.939C45.8392 16.939 44.8134 12.6461 43.1832 12.025C41.5714 11.3674 40.6922 16.9755 30.966 11.9885Z" fill="#51495B"/>
<path d="M73.5522 125.632C73.5522 125.632 37.5783 129.414 25.526 125.797C13.4919 122.198 15.7266 109.612 36.2046 111.329C56.6826 113.046 76.6844 119.513 76.6844 119.513L73.5522 125.632Z" fill="#43F9F9"/>
<path d="M76.1532 120.572C76.1532 120.572 83.2967 120.188 87.5095 121.485C91.7224 122.782 94.1402 124.28 88.7184 125.943C83.2967 127.605 74.2849 124.189 74.2849 124.189L76.1532 120.572Z" fill="#C1733D"/>
<path d="M96.5396 117.649C96.5396 117.649 96.5397 122.088 99.2505 122.088C101.961 122.088 111.651 122.088 111.651 122.088C111.651 122.088 114.49 121.686 113.244 120.536C111.999 119.385 100.936 115.457 100.936 115.457L96.5396 117.649Z" fill="#9C5C2F"/>
<path d="M35.4353 38.0748C35.4353 38.0748 34.5561 43.336 34.5561 43.9023C34.5561 44.4686 35.7283 44.8339 35.7283 44.8339C35.7283 44.8339 32.8526 48.0125 27.3943 48.0125C21.9359 48.0125 17.6315 45.3089 17.6315 45.3089C17.6315 45.3089 20.0493 43.2629 21.4047 42.2216C23.621 40.5044 26.2403 29.6716 26.2403 29.6716L35.4353 38.0748Z" fill="#C1733D"/>
<path d="M27.1745 29.1603C27.1745 29.1603 27.4492 32.7408 29.7388 35.2983C32.0284 37.8558 35.3437 38.6048 35.3437 38.6048L35.0323 40.4863C35.0323 40.4863 33.4754 41.692 28.9512 41.6189C24.427 41.5459 22.7785 40.2123 22.7785 40.2123C22.7785 40.2123 24.5919 35.554 25.178 33.1792C25.7641 30.8044 26.0206 29.1238 26.0206 29.1238L27.1745 29.1603Z" fill="#9C5C2F"/>
<path d="M147.625 88.8594H104.031V125.34H147.625V88.8594Z" fill="#133282"/>
<path d="M121.89 54.7168H94.8911V88.8593H121.89V54.7168Z" fill="#FF8E00"/>
<path d="M153.156 67.2305H131.47V88.8595H153.156V67.2305Z" fill="#80CFD4"/>
<path d="M150.739 34.7866L130.627 63.0834L143.229 66.0793L155.849 69.0935L150.739 34.7866Z" fill="#43F9F9"/>
<path d="M75.7136 27.4065L78.8091 61.9509L90.3669 56.0869L101.925 50.2047L75.7136 27.4065Z" fill="#225AE6"/>
<path d="M15.7998 65.3304C15.7998 65.3304 36.0764 83.6347 50.3084 79.6158C64.5588 75.5786 76.7027 56.8541 76.7027 56.8541L72.3617 53.6755C72.3617 53.6755 54.2831 68.308 48.7515 68.0888C43.2199 67.8696 24.6285 54.1505 24.6285 54.1505L15.7998 65.3304Z" fill="#C1733D"/>
<path d="M72.3617 53.6574C72.3617 53.6574 76.4646 50.1865 78.3146 49.6202C80.1646 49.0539 90.5135 48.0674 89.9457 50.8258C89.3778 53.5843 80.9155 56.6898 76.721 56.836C72.4899 56.9821 72.3617 53.6574 72.3617 53.6574Z" fill="#C1733D"/>
<path d="M19.3899 43.8657C19.3899 43.8657 11.7518 46.2588 8.34495 53.9861C4.93805 61.7133 6.95288 73.5874 6.69645 79.634C12.8142 58.005 27.3943 48.0125 27.3943 48.0125C27.3943 48.0125 23.1998 47.9394 19.3899 43.8657Z" fill="#EFE6E8"/>
<path d="M7.70387 55.7034C7.70387 55.7034 7.75882 59.1377 15.7998 65.3122C23.8408 71.4867 31.2957 76.5104 35.71 77.9535C40.1427 79.3967 43.3481 80.1639 43.3481 80.1639L42.7253 83.1233C42.7253 83.1233 26.2037 79.3967 19.8295 78.3919C13.4553 77.3872 13.1622 86.5759 11.8984 91.9466C10.6162 97.3173 8.49148 109.995 8.49148 109.995C8.49148 109.995 5.26775 110.726 1.3663 110.653C1.97075 103.108 5.79893 83.8357 5.96378 77.9535C6.12863 72.1078 5.67072 61.3116 7.70387 55.7034Z" fill="#E0D5D8"/>
<path d="M186.291 100.368C186.291 100.368 189.02 104.88 187.482 109.082C185.943 113.283 174.147 116.517 174.825 118.691C175.503 120.846 189.918 120.773 189.918 120.773L190.724 125.231C190.724 125.231 177.994 126.107 167.242 125.706C156.49 125.304 160.153 115.987 165.319 111.511C170.466 107.054 173.451 103.93 173.451 103.93L186.291 100.368Z" fill="#443D4F"/>
<path d="M190.046 121.394C190.046 121.394 191.255 120.39 192.464 120.225C193.655 120.061 193.838 121.084 194.314 122.125C194.79 123.166 197.648 123.586 198.344 124.08C199.021 124.573 198.325 125.121 196.146 125.121C193.984 125.121 190.687 124.938 190.687 124.938L190.046 121.394Z" fill="#D4E3FB"/>
<path d="M192.647 99.144C192.647 99.144 196.439 104.862 194.9 109.063C193.361 113.265 181.566 116.498 182.243 118.672C182.921 120.828 197.336 120.755 197.336 120.755L198.142 125.212C198.142 125.212 188.746 126.089 178.012 125.687C167.26 125.285 167.59 115.969 172.737 111.493C177.884 107.036 180.87 103.912 180.87 103.912L192.647 99.144Z" fill="#173C9B"/>
<path d="M192.079 65.2756C188.727 71.8337 181.089 75.9257 175.668 73.1673C170.246 70.4089 169.092 61.8413 172.444 55.2831C175.796 48.725 182.39 46.679 187.812 49.4192C193.233 52.1959 195.431 58.7357 192.079 65.2756Z" fill="#C1733D"/>
<path d="M185.394 57.9138C186.2 58.4983 186.841 60.3982 186.035 62.1336C185.229 63.8873 183.379 64.892 184.57 66.9563C185.76 69.0206 182.866 70.6647 184.899 72.601C186.932 74.5192 191.457 74.8845 193.215 71.8155C194.973 68.7465 193.893 65.3122 195.01 63.4489C196.127 61.5856 200.542 57.7493 196.567 52.47C192.592 47.1906 189.204 48.3232 187.61 47.2819C186.017 46.2589 183.104 43.9572 180.576 44.6879C178.049 45.4369 177.866 47.081 176.18 47.5377C174.514 48.0126 170.814 49.5837 170.191 52.47C169.568 55.3563 171.052 57.6215 173.891 57.5484C176.73 57.4753 177.225 56.9273 178.617 57.932C180.009 58.9368 181.218 59.6675 183.013 59.3021C184.789 58.9185 185.394 57.9138 185.394 57.9138Z" fill="#51495B"/>
<path d="M186.749 77.4054C186.749 77.4054 190.687 82.4108 193.38 90.5035C196.072 98.5961 196.256 106.104 196.256 106.104C196.256 106.104 193.966 108.369 185.339 108.57C176.693 108.79 169.77 105.757 169.77 105.757C169.77 105.757 173.873 93.7551 174.642 87.8729C175.411 81.9907 176.419 78.5928 179.477 77.0035C182.518 75.3777 184.46 75.5421 186.749 77.4054Z" fill="#FFC001"/>
<path d="M197.464 121.394C197.464 121.394 198.673 120.39 199.882 120.225C201.073 120.061 201.256 121.084 201.732 122.125C202.208 123.166 205.066 123.586 205.762 124.08C206.44 124.573 205.744 125.121 203.564 125.121C201.403 125.121 198.106 124.938 198.106 124.938L197.464 121.394Z" fill="#80CFD4"/>
<path d="M156.27 69.9158C156.27 69.9158 163.084 73.8068 170.118 75.5057C177.133 77.2046 183.379 77.369 185.54 78.6843C187.702 80.0178 188.196 84.5482 182.042 84.9318C175.887 85.3337 164.183 81.3331 153.889 71.432C154.548 70.409 156.27 69.9158 156.27 69.9158Z" fill="#C1733D"/>
<path d="M156.087 69.532C156.087 69.532 155.061 67.5591 153.083 65.641C151.105 63.7411 149.805 63.6133 149.438 65.1478C149.072 66.6823 150.537 69.9522 154.475 71.7059C158.432 73.4779 156.087 69.532 156.087 69.532Z" fill="#C1733D"/>
<path d="M178.36 77.716C178.36 77.716 179.276 75.7613 179.056 73.6422C178.836 71.5231 183.819 71.5049 183.819 71.5049L184.698 76.1815C184.698 76.1815 180.815 79.3418 178.635 79.7802C176.455 80.2187 177.609 78.3188 178.36 77.716Z" fill="#C1733D"/>
<path d="M179.038 74.1903C179.038 74.1903 182.097 73.7884 183.965 72.2356C184.02 72.5462 184.112 73.0394 184.112 73.0394C184.112 73.0394 183.47 74.5008 181.529 75.6152C179.569 76.7295 178.763 76.6016 178.763 76.6016L179.038 74.1903Z" fill="#9C5C2F"/>
<path d="M165.429 73.4961C165.429 73.4961 172.645 75.6334 178.195 76.492C183.745 77.3506 186.31 77.3688 187.409 80.6022C188.489 83.8538 185.027 86.1738 179.349 85.7171C173.689 85.2604 165.722 81.3694 162.883 79.1408C163.304 77.1313 165.429 73.4961 165.429 73.4961Z" fill="#FFC001"/>
</svg>
