<svg width="173" height="36" viewBox="0 0 173 36" fill="none" xmlns="http://www.w3.org/2000/svg">
<g clip-path="url(#clip0)">
<path d="M57.0807 0C53.7717 0 51.6001 2.6 51.6001 5.8L51.2899 11C51.2899 11.5 50.8763 11.9 50.3592 11.9H46.6366C46.1195 11.9 45.7059 11.5 45.7059 11L45.3957 5.9C45.3957 2.7 43.1207 0.1 39.7083 0.1C36.3993 0.1 34.4345 2.7 34.4345 5.9L33.7107 30.3C33.7107 33.6 36.5027 36.2 39.9151 36.1C43.2241 36 45.8093 33.3 45.8093 30.2V24.5C45.8093 24 46.223 23.6 46.74 23.6H50.3592C50.8763 23.6 51.2899 24 51.2899 24.5V30.2C51.2899 33.4 53.8751 36.1 57.1841 36.1C60.5965 36.2 63.3885 33.6 63.3885 30.3L62.3545 5.8C62.3545 2.6 60.3897 0 57.0807 0Z" fill="white"/>
<path d="M167.002 36C163.693 36 161.005 33.4 161.005 30.2L162.142 5.8C162.142 2.6 163.693 0 167.002 0C170.311 0 172.276 2.6 172.276 5.8L173 30.2C173 33.4 170.311 36 167.002 36Z" fill="white"/>
<path d="M121.503 0.4L102.683 0C99.9946 0 97.8231 2.1 97.8231 4.6C97.7197 7.2 100.098 9.4 102.787 9.4H105.165C105.682 9.4 106.096 9.8 106.096 10.3L106.613 30.2C106.613 33.4 108.784 36 112.093 36C115.402 36 117.574 33.4 117.574 30.2L118.091 10.2C118.091 9.7 118.504 9.4 118.918 9.3L121.503 9C124.192 9 126.363 7.3 126.363 4.7C126.363 2.1 124.192 0.4 121.503 0.4Z" fill="white"/>
<path d="M153.042 0.4L134.222 0C131.534 0 129.362 2.1 129.362 4.6C129.259 7.2 131.637 9.4 134.326 9.4H136.704C137.221 9.4 137.635 9.8 137.635 10.3L138.152 30.2C138.152 33.4 140.323 36 143.632 36C146.941 36 149.113 33.4 149.113 30.2L149.63 10.2C149.63 9.7 150.044 9.4 150.457 9.3L153.042 9C155.731 9 157.903 7.3 157.903 4.7C157.903 2.1 155.731 0.4 153.042 0.4Z" fill="white"/>
<path d="M98.5469 28L95.3413 20.3V20.2C87.7926 2.4 87.896 3.4 87.5858 2.8C87.1721 2.2 86.6551 1.6 86.0347 1.1C82.829 -1.2 79.1064 0.6 77.6587 4.1C77.1416 5.3 67.4214 27 67.0078 28C65.7669 31 67.2146 34.4 70.3168 35.6C71.0406 35.9 71.8679 36 72.5917 36C74.9701 36 77.245 34.6 78.1757 32.4L79.6234 29C79.7268 28.7 80.1405 28.4 80.5541 28.4H85.104C85.5176 28.4 85.8278 28.6 86.0347 29L87.4824 32.4C88.7232 35.4 92.2391 36.8 95.3413 35.6C98.3401 34.4 99.7878 31 98.5469 28ZM83.6563 20.5H81.795C81.0711 20.5 80.5541 19.7 80.9677 19.1L81.8984 16.6C82.312 16 83.1393 16 83.5529 16.6L84.4835 19.1C84.8972 19.8 84.3801 20.5 83.6563 20.5Z" fill="white"/>
<path d="M18.5099 36C21.6121 36 24.6109 35.6 27.4029 34.2C30.2983 32.7 32.3664 29.7 30.8153 26.9C29.6778 24.9 27.2995 24.5 25.1279 24.6C24.1972 24.6 19.9576 25.1 18.8201 25.1C15.2008 25.1 12.202 22.2 12.202 18.7C12.202 16.2 13.8565 13.8 16.2349 12.8C17.1656 12.4 18.5099 12.3 19.5439 12.3C20.8882 12.2 22.3359 12.4 23.6802 12.6C26.0586 12.9 28.954 13.1 30.1949 10.6C31.4357 8 30.1949 5.3 28.0233 3.7C25.6449 1.9 21.8189 1 18.8201 1C8.37597 1.1 0 8.8 0 18.7C0 28.7 8.16916 36 18.5099 36Z" fill="white"/>
</g>
<defs>
<clipPath id="clip0">
<rect width="173" height="36" fill="white"/>
</clipPath>
</defs>
</svg>
