<svg width="18" height="18" viewBox="0 0 18 18" fill="none" xmlns="http://www.w3.org/2000/svg">
<path d="M9 0C4.03748 0 0 4.03748 0 9C0 13.9625 4.03748 18 9 18C13.9625 18 18 13.9625 18 9C18 4.03748 13.9625 0 9 0ZM9 2.62501C11.3778 2.62501 13.3125 4.5597 13.3125 6.93752C13.3125 9.31535 11.3778 11.25 9 11.25C6.62221 11.25 4.68749 9.31532 4.68749 6.93749C4.68749 4.55966 6.62221 2.62501 9 2.62501ZM9 16.5C6.54936 16.5 4.37625 15.3133 3.00681 13.4901C4.50714 12.7682 6.64973 12 9 12C11.3504 12 13.4932 12.7683 14.9932 13.49C13.6238 15.3133 11.4507 16.5 9 16.5Z" fill="#163C9B"/>
</svg>
