<svg width="19" height="16" viewBox="0 0 19 16" fill="none" xmlns="http://www.w3.org/2000/svg">
<path d="M5.00197 9.00085C5.00197 8.44768 4.55194 8.00232 4.00345 8.00232H1.00321C0.450037 8.00232 0 8.44768 0 9.00085V16H5.00197V9.00085Z" fill="#163C9B"/>
<path d="M5.00197 9.00098C5.00197 8.4478 4.55194 8.00244 4.00345 8.00244H1.00321C0.450037 8.00244 0 8.4478 0 9.00098V16.0001H5.00197V9.00098Z" fill="#163C9B"/>
<path d="M12.001 5.00207C12.001 4.4489 11.551 4.00354 11.0025 4.00354H8.00224C7.44907 4.00354 7.00372 4.45358 7.00372 5.00207V16.0047H12.001V5.00207Z" fill="#163C9B"/>
<path d="M12.001 5.00195C12.001 4.44877 11.551 4.00342 11.0025 4.00342H8.00224C7.44907 4.00342 7.00372 4.45346 7.00372 5.00195V16.0046H12.001V5.00195Z" fill="#163C9B"/>
<path d="M19 0.998535C19 0.450044 18.5547 0 18.0015 0H15.0012C14.4481 0 14.0027 0.450044 14.0027 0.998535V16H19.0047V0.998535H19Z" fill="#163C9B"/>
<path d="M19 0.998535C19 0.450044 18.5547 0 18.0015 0H15.0012C14.4481 0 14.0027 0.450044 14.0027 0.998535V16H19.0047V0.998535H19Z" fill="#163C9B"/>
</svg>
