<svg width="18" height="18" viewBox="0 0 18 18" fill="none" xmlns="http://www.w3.org/2000/svg">
<circle cx="9" cy="9" r="9" fill="#163C9B"/>
<path d="M10.555 8.28501C10.555 8.70501 10.42 9.43001 10.15 10.46C9.87999 11.48 9.74499 12.15 9.74499 12.47C9.74499 12.78 9.78999 12.935 9.87999 12.935C9.93999 12.935 10.17 12.84 10.57 12.65L10.75 12.56L11.005 13.085C10.915 13.165 10.795 13.265 10.645 13.385C10.495 13.505 10.215 13.67 9.80499 13.88C9.39499 14.08 9.01499 14.18 8.66499 14.18C8.31499 14.18 8.03999 14.075 7.83999 13.865C7.63999 13.645 7.53999 13.355 7.53999 12.995C7.53999 12.625 7.66499 11.975 7.91499 11.045C8.16499 10.105 8.28999 9.49501 8.28999 9.21501C8.28999 8.79501 8.15999 8.4 7.89999 8.03L7.76499 7.85L7.77999 7.655C8.30999 7.505 9.16999 7.43 10.36 7.43C10.49 7.58 10.555 7.86501 10.555 8.28501ZM8.84499 5.795C8.64499 5.595 8.54499 5.33 8.54499 5C8.54499 4.67 8.67999 4.38 8.94999 4.13C9.22999 3.88 9.54999 3.755 9.90999 3.755C10.27 3.755 10.55 3.855 10.75 4.055C10.95 4.25501 11.05 4.52001 11.05 4.85001C11.05 5.17001 10.905 5.455 10.615 5.705C10.335 5.95501 10.02 6.08001 9.66999 6.08001C9.31999 6.08001 9.04499 5.985 8.84499 5.795Z" fill="#FFC000"/>
</svg>
