<svg width="132" height="124" viewBox="0 0 132 124" fill="none" xmlns="http://www.w3.org/2000/svg">
<g clip-path="url(#clip0)">
<path d="M96.8 -0.000594588C83.985 0.0547625 72.215 7.08512 66 18.3503C58.2725 4.17887 41.965 -2.90684 26.4275 1.10655C10.8625 5.14762 0 19.2637 0 35.428C0 73.4583 45.2925 123.999 66 123.999C86.7075 123.999 132 73.4583 132 35.428C131.973 15.8869 116.243 0.027084 96.8 -0.000594588ZM66 119.571C49.5 119.571 4.4 71.8806 4.4 35.428C4.4 20.4815 14.9875 7.66637 29.59 4.95387C44.1925 2.24137 58.6575 10.4065 63.9375 24.3842C64.2675 25.2423 65.0925 25.7958 66 25.7958C66.9075 25.7958 67.7325 25.2423 68.0625 24.3842C73.3425 10.4065 87.8075 2.24137 102.41 4.95387C117.012 7.66637 127.6 20.4815 127.6 35.428C127.6 71.8806 82.5 119.571 66 119.571Z" fill="#26E2E2"/>
<path d="M41.8 37.6428C35.64 37.6428 30.8 44.4518 30.8 53.1428C30.8 54.3607 31.79 55.3571 33 55.3571C34.21 55.3571 35.2 54.3607 35.2 53.1428C35.2 47.1366 38.225 42.0714 41.8 42.0714C45.375 42.0714 48.4 47.1366 48.4 53.1428C48.4 54.3607 49.39 55.3571 50.6 55.3571C51.81 55.3571 52.8 54.3607 52.8 53.1428C52.8 44.4518 47.96 37.6428 41.8 37.6428Z" fill="#26E2E2"/>
<path d="M90.1999 37.6428C84.0399 37.6428 79.2 44.4518 79.2 53.1428C79.2 54.3607 80.19 55.3571 81.4 55.3571C82.61 55.3571 83.5999 54.3607 83.5999 53.1428C83.5999 47.1366 86.6249 42.0714 90.1999 42.0714C93.7749 42.0714 96.7999 47.1366 96.7999 53.1428C96.7999 54.3607 97.7899 55.3571 98.9999 55.3571C100.21 55.3571 101.2 54.3607 101.2 53.1428C101.2 44.4518 96.3599 37.6428 90.1999 37.6428Z" fill="#26E2E2"/>
<path d="M77.0001 68.6428C75.7901 68.6428 74.8001 69.6393 74.8001 70.8571C74.8001 79.2714 70.7576 86.3571 66.0001 86.3571C61.2426 86.3571 57.2 79.2714 57.2 70.8571C57.2 69.6393 56.21 68.6428 55 68.6428C53.79 68.6428 52.8 69.6393 52.8 70.8571C52.8 82.0392 58.6026 90.7857 66.0001 90.7857C73.3976 90.7857 79.2001 82.0392 79.2001 70.8571C79.2001 69.6393 78.2101 68.6428 77.0001 68.6428Z" fill="#26E2E2"/>
</g>
<defs>
<clipPath id="clip0">
<rect width="132" height="124" fill="white"/>
</clipPath>
</defs>
</svg>
