<svg width="59" height="55" viewBox="0 0 59 55" fill="none" xmlns="http://www.w3.org/2000/svg">
<g opacity="0.3">
<path d="M8.11089 0H50.8891C55.3644 0 59 3.68412 59 8.21914V34.7467C59 39.2724 55.3736 42.9471 50.9168 42.9658V55L33.8461 42.9658H8.11089C3.6356 42.9658 0 39.2817 0 34.7467V8.21914C0 3.68412 3.64482 0 8.11089 0ZM3.46027 34.7467C3.46027 37.3461 5.54567 39.4594 8.11089 39.4594H34.9349L47.4657 48.2956V39.4594H50.8891C53.4543 39.4594 55.5397 37.3461 55.5397 34.7467V8.21914C55.5397 5.61969 53.4543 3.50646 50.8891 3.50646H8.11089C5.54567 3.50646 3.46027 5.61969 3.46027 8.21914V34.7467Z" fill="white"/>
<path d="M43.2119 12.3801H15.7973V15.8866H43.2119V12.3801Z" fill="white"/>
<path d="M43.2119 19.8512H15.7973V23.3577H43.2119V19.8512Z" fill="white"/>
<path d="M43.2119 27.3223H15.7973V30.8288H43.2119V27.3223Z" fill="white"/>
</g>
</svg>
