<svg width="67" height="62" viewBox="0 0 67 62" fill="none" xmlns="http://www.w3.org/2000/svg">
<g opacity="0.3">
<path d="M57.7893 0H9.21067C4.12856 0 0 4.15301 0 9.26522V39.169C0 44.2707 4.11808 48.4131 9.17923 48.4342V62L28.5646 48.4342H57.7893C62.8714 48.4342 67 44.2812 67 39.169V9.26522C67 4.15301 62.861 0 57.7893 0ZM63.0705 39.169C63.0705 42.0993 60.7024 44.4815 57.7893 44.4815H27.3281L13.0982 54.4424V44.4815H9.21067C6.29762 44.4815 3.92947 42.0993 3.92947 39.169V9.26522C3.92947 6.33492 6.29762 3.95274 9.21067 3.95274H57.7893C60.7024 3.95274 63.0705 6.33492 63.0705 9.26522V39.169Z" fill="white"/>
<path d="M17.9288 18.9558H49.0607V22.9085H17.9288V18.9558Z" fill="white"/>
<path d="M17.9288 27.3778H49.0607V31.3305H17.9288V27.3778Z" fill="white"/>
</g>
</svg>
